<?xml version="1.0" encoding="UTF-8" standalone="no"?>
<!-- Exemple généré - croix pattée générique (symbole héraldique ancien, sans lien avec une oeuvre
     GW précise), tenue dans ~65% du canevas pour la zone de sécurité Android, traits épais pour
     rester lisible à 16-24px. -->

<svg
   version="1.1"
   id="svg1"
   width="192"
   height="192"
   viewBox="0 0 192 192"
   sodipodi:docname="logo.svg"
   inkscape:export-filename="appicon.svg"
   inkscape:export-xdpi="96"
   inkscape:export-ydpi="96"
   inkscape:version="1.4.4 (dcaf3e7, 2026-05-05)"
   xmlns:inkscape="http://www.inkscape.org/namespaces/inkscape"
   xmlns:sodipodi="http://sodipodi.sourceforge.net/DTD/sodipodi-0.dtd"
   xmlns="http://www.w3.org/2000/svg"
   xmlns:svg="http://www.w3.org/2000/svg">
  <defs
     id="defs1" />
  <sodipodi:namedview
     id="namedview1"
     pagecolor="#ffffff"
     bordercolor="#000000"
     borderopacity="0.25"
     inkscape:showpageshadow="2"
     inkscape:pageopacity="0.0"
     inkscape:pagecheckerboard="0"
     inkscape:deskcolor="#d1d1d1"
     inkscape:zoom="4.203125"
     inkscape:cx="96"
     inkscape:cy="96"
     inkscape:window-width="1920"
     inkscape:window-height="1009"
     inkscape:window-x="-8"
     inkscape:window-y="-8"
     inkscape:window-maximized="1"
     inkscape:current-layer="svg1" />
  <rect
     width="192"
     height="192"
     fill="#0d0b0a"
     id="rect1"
     x="4.0061414e-07"
     y="0.4758364" />
  <path
     fill="#c9a66b"
     d="m 74,34 h 44 l -12,52 52,-12 v 44 l -52,-12 12,52 H 74 L 86,106 34,118 V 74 l 52,12 z"
     id="path1"
     style="display:none" />
  <path
     style="display:inline;fill:#c9a66b;stroke-width:0.968023;fill-opacity:1"
     d="m 14.070946,184.78399 c 0,-0.0827 0.111958,-0.15032 0.248794,-0.15032 0.136844,0 0.204425,0.0676 0.150172,0.15032 -0.05424,0.0827 -0.166201,0.15032 -0.248794,0.15032 -0.08259,0 -0.150172,-0.0676 -0.150172,-0.15032 z m 83.854337,-4.07171 c -0.05892,-0.0899 -0.02733,-0.23869 0.07038,-0.3307 0.130406,-0.12284 0.177588,-0.0794 0.177588,0.16342 0,0.36295 -0.08289,0.41887 -0.247961,0.16728 z m 92.258257,-3.58171 c -0.0513,-0.0784 -0.0255,-0.18199 0.0578,-0.23037 0.0832,-0.0483 0.1932,-0.0239 0.24458,0.0544 0.0513,0.0784 0.0255,0.18198 -0.0578,0.23038 -0.0831,0.0484 -0.1932,0.0239 -0.24459,-0.0544 z M 52.557499,158.80384 c -0.129207,-0.0812 -0.199051,-0.36428 -0.177202,-0.71833 0.01981,-0.32141 -0.0092,-0.75348 -0.065,-0.96018 -0.05557,-0.20668 -0.164301,-1.00219 -0.24152,-1.76778 -0.120197,-1.19165 -0.08919,-1.63515 0.215141,-3.08154 0.238564,-1.13369 0.300944,-1.72286 0.189604,-1.79082 -0.111268,-0.0679 -0.09944,-0.17673 0.03585,-0.33025 0.110964,-0.12594 0.188164,-0.38476 0.171554,-0.57516 -0.01666,-0.1904 -0.02225,-0.73456 -0.01249,-1.20924 0.01737,-0.85106 0.02377,-0.86232 0.456531,-0.80934 0.670939,0.0821 1.316313,0.36538 1.319035,0.57887 0.0021,0.13294 0.04856,0.12296 0.152936,-0.0326 0.114438,-0.17049 0.194999,-0.1823 0.33618,-0.0493 0.102125,0.0962 0.284651,0.13912 0.40561,0.0954 0.120969,-0.0437 0.219936,-0.005 0.219936,0.0868 0,0.21239 1.222517,0.22027 1.361281,0.009 0.07151,-0.10901 0.168467,-0.10676 0.314383,0.008 0.128262,0.10025 0.247535,0.10918 0.304236,0.0228 0.09446,-0.14404 2.971924,0.36862 3.126881,0.55709 0.315999,0.38433 1.333185,0.56551 4.020349,0.71614 1.360368,0.0762 1.393056,0.0872 1.691796,0.56409 0.313233,0.50005 1.854744,1.25974 2.026148,0.99852 0.108483,-0.16533 -0.299756,-0.5486 -0.891171,-0.83667 -0.504699,-0.24584 -0.614617,-0.51876 -0.208925,-0.51876 0.140096,0 0.659034,0.11071 1.153209,0.24604 0.698367,0.19122 1.308096,0.22803 2.737536,0.1653 1.93289,-0.0848 2.607527,-0.2649 3.087452,-0.82408 0.242404,-0.28243 0.392292,-0.32363 0.899295,-0.24727 0.482423,0.0727 0.755574,0.0104 1.319016,-0.30061 0.390819,-0.21573 0.865856,-0.39225 1.055635,-0.39225 0.189777,0 0.345048,-0.0602 0.345048,-0.13376 0,-0.0735 0.311051,-0.27149 0.691215,-0.43981 0.380164,-0.16831 0.911791,-0.54266 1.181378,-0.83188 0.269596,-0.28923 0.711917,-0.63387 0.982946,-0.76588 0.271028,-0.13201 0.616474,-0.41784 0.767662,-0.63519 0.151188,-0.21732 0.686585,-0.8078 1.189758,-1.31215 2.092772,-2.09763 3.315106,-4.9302 3.57419,-8.28262 0.02559,-0.33071 0.0051,-1.39985 -0.0455,-2.37589 l -0.09203,-1.77461 -0.44874,-0.0845 c -0.389184,-0.0733 -0.446109,-0.15067 -0.42887,-0.58272 0.03159,-0.79077 -0.367426,-1.21599 -1.258728,-1.34146 -0.421913,-0.0593 -1.19243,-0.27057 -1.712264,-0.4693 -0.519823,-0.19872 -1.087815,-0.36132 -1.262193,-0.36132 -0.380876,0 -2.021719,-1.13464 -2.021719,-1.39801 0,-0.10214 0.179539,-0.43458 0.398967,-0.73874 0.219428,-0.30417 0.398965,-0.71661 0.398965,-0.91654 0,-0.47991 0.577256,-1.15564 0.987224,-1.15564 0.295589,0 0.315755,0.0625 0.218025,0.67643 -0.103812,0.65204 -0.09295,0.67644 0.301045,0.67644 0.395789,0 0.408748,-0.0303 0.408748,-0.95654 v -0.95655 l 0.937583,-0.39632 c 0.515668,-0.21798 1.01286,-0.39633 1.104869,-0.39633 0.09203,0 0.383171,0.17111 0.647048,0.38025 0.531324,0.42112 1.815547,0.88083 2.904927,1.03987 0.390088,0.0569 1.247871,0.2638 1.906164,0.45968 1.549566,0.46104 3.192308,0.84186 3.325974,0.77101 0.05779,-0.0306 0.93101,0.0756 1.940386,0.23601 2.615063,0.41569 3.941921,0.52148 4.947202,0.39447 1.165165,-0.1472 3.022675,-0.38366 5.266375,-0.67039 1.0094,-0.129 2.23024,-0.36666 2.71297,-0.52815 0.48275,-0.16148 1.09317,-0.34743 1.3565,-0.41323 0.26331,-0.0658 0.76601,-0.25715 1.11709,-0.42527 0.35111,-0.1681 0.87132,-0.35301 1.15607,-0.4109 0.28475,-0.0579 0.57199,-0.18941 0.63834,-0.29227 0.0664,-0.10287 0.51563,-0.38851 0.99838,-0.63474 0.48275,-0.24623 1.02135,-0.52619 1.1969,-0.62212 0.965,-0.52736 2.1143,-0.90311 2.55747,-0.83615 0.42509,0.0643 0.56619,-0.0202 1.17989,-0.70569 0.69882,-0.78064 1.69929,-2.55452 2.15709,-3.82464 0.28238,-0.78341 0.11221,-1.35816 -0.45283,-1.52935 -0.84137,-0.25492 -4.87173,-0.27992 -6.8779,-0.0427 -0.70219,0.0831 -1.81531,0.1853 -2.47361,0.22724 -0.65828,0.0419 -1.55596,0.17247 -1.99483,0.29009 -0.43886,0.11762 -1.1211,0.20821 -1.51607,0.2013 -0.39498,-0.007 -1.11313,0.0675 -1.59587,0.16553 -0.48276,0.0979 -1.41633,0.23543 -2.07463,0.30552 -0.65828,0.0701 -1.91279,0.20437 -2.78776,0.29841 -0.874977,0.094 -2.761376,0.33356 -4.192026,0.53226 -1.43064,0.19869 -2.701109,0.32513 -2.823278,0.28097 -0.122168,-0.0442 -0.44047,0.0262 -0.707356,0.15608 -0.266883,0.12999 -0.65039,0.23717 -0.852234,0.23817 -0.201846,9.4e-4 -0.679534,0.1701 -1.061529,0.3758 -0.381991,0.20568 -0.831807,0.37398 -0.999583,0.37398 -0.167774,0 -0.429753,0.0593 -0.58216,0.13197 -1.543391,0.73499 -1.837611,0.70589 -2.343893,-0.2318 -0.171229,-0.31713 -0.44551,-0.68189 -0.609496,-0.81058 -0.163997,-0.12868 -0.338031,-0.5139 -0.386757,-0.85604 -0.04876,-0.34213 -0.21308,-0.74794 -0.365253,-0.9018 -0.286732,-0.2899 -0.519497,-1.24004 -0.303787,-1.24004 0.06734,0 0.164544,0.0641 0.215893,0.14229 0.143987,0.21944 1.696599,0.0698 2.297045,-0.22145 0.42823,-0.20767 0.717716,-0.23633 1.436286,-0.14212 1.070962,0.14041 2.243056,0.1514 3.171404,0.0298 0.371571,-0.0486 0.710769,-0.0348 0.753787,0.0306 0.110506,0.16842 1.710444,-0.14027 2.017483,-0.38925 0.195883,-0.15885 0.844252,-0.20224 2.792774,-0.18689 1.624222,0.0127 3.05352,-0.0619 3.9708,-0.20746 0.78822,-0.12509 1.63006,-0.20397 1.87075,-0.17527 0.24071,0.0287 0.47748,-0.009 0.5262,-0.0829 0.0486,-0.0742 0.31774,-0.10767 0.59787,-0.0743 0.28011,0.0334 0.54842,9.4e-4 0.59625,-0.0718 0.0478,-0.0728 0.55272,-0.15124 1.12205,-0.17417 0.56934,-0.023 1.1866,-0.13088 1.37167,-0.2399 0.29299,-0.17258 0.42711,-0.14943 1.03733,0.17914 0.38542,0.20753 0.90054,0.37815 1.14468,0.37914 0.78064,0.003 2.40629,-0.59269 2.82763,-1.03646 0.21945,-0.23111 0.75805,-0.54046 1.19692,-0.68744 0.43885,-0.14699 1.03011,-0.47361 1.31389,-0.72581 0.46338,-0.41184 0.50636,-0.52092 0.42193,-1.0704 -0.0516,-0.33651 -0.23065,-0.88807 -0.39765,-1.22569 -0.20084,-0.40603 -0.29773,-0.91493 -0.28622,-1.50318 0.0102,-0.48914 -0.0887,-1.19374 -0.21822,-1.56578 -0.36613,-1.05104 -0.56915,-1.94562 -0.67375,-2.9688 -0.1107,-1.08289 0.0559,-1.19044 0.93192,-0.60127 0.27656,0.18602 0.79035,0.48188 1.14174,0.65745 0.39548,0.19759 0.74507,0.52544 0.9175,0.86044 0.31725,0.61632 0.78717,0.95269 1.52511,1.09171 0.68348,0.12875 0.72492,-0.32411 0.0426,-0.46528 -0.53949,-0.1116 -0.8226,-0.38858 -1.04813,-1.02536 -0.0878,-0.2482 -0.26753,-0.49851 -0.39918,-0.55624 -1.22131,-0.53554 -1.83131,-0.8774 -2.07101,-1.16065 -0.15584,-0.18419 -0.47524,-0.4036 -0.70976,-0.48759 -0.26491,-0.0948 -0.52137,-0.36656 -0.67716,-0.71735 -0.35424,-0.79777 -0.85092,-3.517315 -0.85092,-4.659311 0,-0.922059 -0.1336,-1.800215 -0.72631,-4.774152 -0.14829,-0.744078 -0.30497,-1.623443 -0.34816,-1.954144 -0.0432,-0.330701 -0.13289,-0.668918 -0.19933,-0.751594 -0.0665,-0.08267 -0.16865,-0.728431 -0.22712,-1.435013 -0.0584,-0.706584 -0.25187,-1.8227 -0.42976,-2.48026 -0.34245,-1.266009 -0.83121,-5.236823 -0.69513,-5.647693 0.0444,-0.133762 0.009,-0.421108 -0.0791,-0.638546 -0.10738,-0.26599 -0.10363,-0.874971 0.0115,-1.861258 0.2851,-2.443988 0.1446,-3.533744 -0.46642,-3.618077 -0.28423,-0.03923 -0.41691,0.104194 -0.74731,0.807878 -0.22093,0.470565 -0.4017,0.935694 -0.4017,1.033618 0,0.09792 -0.099,0.305684 -0.22019,0.461688 -0.20653,0.26604 -0.2414,0.244499 -0.5618,-0.347067 -0.35872,-0.662312 -0.7074,-0.808269 -0.88564,-0.370736 -0.0733,0.179666 0.0404,0.37702 0.36715,0.638855 0.83901,0.671923 0.81129,0.80783 -0.77425,3.796533 -0.80104,1.509979 -1.5237,2.809678 -1.60589,2.888219 -0.0822,0.07854 -0.14946,0.293201 -0.14946,0.477021 0,0.183821 -0.25136,0.644382 -0.55856,1.023469 -0.3072,0.379087 -0.55855,0.781845 -0.55855,0.89502 0,0.113174 -0.11343,0.294436 -0.25204,0.402802 -0.13863,0.108367 -0.48539,0.640886 -0.77056,1.183377 -0.28519,0.54249 -0.60265,1.121633 -0.70551,1.286983 -0.10284,0.165351 -0.32828,0.622464 -0.50099,1.015808 -0.1727,0.393344 -0.39354,0.799205 -0.49076,0.901913 -0.1933,0.204244 -0.788469,1.122237 -1.201378,1.852997 -0.261139,0.462166 -0.259516,0.467153 0.489118,1.503187 0.41312,0.571715 1.07385,1.377151 1.46831,1.789843 1.13196,1.184329 1.26054,1.605599 0.67546,2.21313 -0.62039,0.644212 -1.42463,1.64938 -1.42463,1.780544 0,0.226789 -0.980411,1.193563 -1.210401,1.193563 -0.238543,0 -0.328862,-0.28819 -0.436573,-1.392799 -0.09741,-0.999692 -0.99427,-2.59625 -1.668958,-2.971195 -0.292817,-0.162744 -0.655949,-0.295892 -0.806953,-0.295892 -0.150995,0 -0.43004,-0.102599 -0.620112,-0.227986 l -0.345567,-0.227986 0.349956,-0.5345 c 0.192469,-0.293976 0.655166,-0.870078 1.028199,-1.280223 0.373034,-0.410144 0.677696,-0.794193 0.677024,-0.853438 -0.004,-0.311615 -0.64908,-2.052915 -0.839914,-2.265568 -0.122093,-0.13599 -0.344415,-0.560277 -0.4941,-0.94286 -0.149674,-0.382583 -0.413196,-0.815839 -0.585594,-0.96279 -0.172369,-0.147331 -0.313562,-0.341634 -0.313755,-0.432164 -8.94e-4,-0.431844 -1.095738,-2.057418 -1.897123,-2.816796 -1.396296,-1.323095 -1.837306,-1.799797 -2.413585,-2.608962 -0.294412,-0.413376 -0.576484,-0.785415 -0.626835,-0.826753 -0.151421,-0.124323 -0.922203,-1.551946 -1.046879,-1.938997 -0.0639,-0.198358 -0.592674,-0.814695 -1.17507,-1.369637 -0.582384,-0.554942 -1.490649,-1.441123 -2.018365,-1.96929 -0.974649,-0.975499 -2.127473,-1.822189 -3.060431,-2.247726 -0.283606,-0.129355 -0.667335,-0.416839 -0.852734,-0.638855 -0.533201,-0.638487 -1.271457,-0.456911 -1.271457,0.312716 0,0.195588 -0.07486,0.487315 -0.166292,0.648281 -0.137374,0.241783 -0.223847,0.263648 -0.497374,0.125763 -0.258354,-0.130234 -0.383751,-0.117309 -0.570735,0.05882 -0.303656,0.286013 -0.134427,0.555215 0.34901,0.555215 0.204862,0 0.416072,0.106998 0.46935,0.237772 0.193159,0.474138 0.08452,1.677933 -0.310838,3.445037 -0.221989,0.992104 -0.513585,2.68319 -0.648004,3.75797 -0.255529,2.04314 -0.788008,5.239922 -1.001524,6.012751 L 78.59657,88.35479 78.416403,87.766373 C 78.317363,87.442743 78.01826,86.922472 77.751851,86.610216 77.485444,86.29796 77.267469,85.881 77.267469,85.683638 c 0,-0.413948 -0.858351,-1.702685 -1.273428,-1.911923 -0.154458,-0.07787 -0.393449,-0.365114 -0.531098,-0.638332 -0.201591,-0.40016 -0.550743,-0.637308 -1.795453,-1.219491 l -1.545199,-0.722729 0.109145,-0.92775 c 0.110516,-0.939368 0.329649,-1.97081 0.564374,-2.656415 0.07079,-0.206688 0.221522,-0.781657 0.335024,-1.277709 0.113503,-0.496052 0.297115,-1.037199 0.408028,-1.20255 0.110911,-0.165351 0.44879,-1.247645 0.75084,-2.4051 0.302052,-1.157455 0.706473,-2.476502 0.898718,-2.931215 0.379474,-0.897539 0.534837,-3.014595 0.241653,-3.292846 -0.08899,-0.08442 -0.5737,-0.199108 -1.077209,-0.25485 l -0.915478,-0.101347 v 0.448823 c 0,0.379549 -0.100258,0.491427 -0.649855,0.724848 -0.357419,0.151814 -1.004002,0.584858 -1.436844,0.962322 -0.432853,0.377463 -1.150203,0.95687 -1.594127,1.287571 -0.741567,0.552432 -1.514624,1.405155 -3.287955,3.626824 -0.594168,0.744383 -1.370606,2.11405 -2.332474,4.114592 -0.297603,0.618978 -1.202609,2.440448 -2.352619,4.735042 -0.248611,0.496051 -0.575994,1.273952 -0.727519,1.728665 -0.151533,0.454714 -0.40189,1.169082 -0.556371,1.587483 -0.417839,1.131702 -0.663728,7.669568 -0.320894,8.531893 0.07171,0.180281 0.180951,0.801283 0.242842,1.380006 0.129522,1.211309 0.519782,2.768544 0.763396,3.046181 0.09173,0.104574 0.269526,0.578072 0.395066,1.052236 0.428445,1.618313 0.476917,1.771353 0.666928,2.105773 0.149481,0.2631 0.334038,0.33582 0.86279,0.34001 0.369945,0.003 0.852164,0.102 1.071592,0.22015 0.670728,0.36117 1.264429,0.27957 1.733939,-0.2383 0.231273,-0.25508 0.67983,-0.7455 0.996803,-1.08981 0.411388,-0.44688 0.6028,-0.819603 0.668887,-1.302473 0.0509,-0.372038 0.28266,-1.319044 0.514989,-2.104463 0.64529,-2.181457 0.704297,-2.401944 0.94532,-3.532489 0.123376,-0.578727 0.301208,-1.305893 0.395177,-1.615926 0.09396,-0.310033 0.237073,-0.808717 0.31803,-1.10819 0.282782,-1.046183 0.585381,-1.040362 1.131249,0.02176 0.191688,0.372982 0.485155,0.747026 0.652158,0.83121 0.361547,0.182255 0.407815,-0.03991 0.06419,-0.308474 -0.131665,-0.102922 -0.239389,-0.264404 -0.239389,-0.35885 0,-0.09445 -0.13336,-0.407469 -0.296362,-0.695608 -0.369875,-0.653853 -0.714284,-2.810026 -0.566976,-3.549627 0.06064,-0.304668 0.201846,-0.720104 0.313702,-0.92319 0.111858,-0.203084 0.370931,-1.215685 0.575711,-2.250223 0.375615,-1.897521 0.548154,-2.20491 1.027377,-1.83029 0.138297,0.108112 0.617734,0.318067 1.065417,0.466568 0.935062,0.310167 2.171098,1.473562 2.18283,2.054539 0.004,0.194753 0.190509,0.55935 0.414609,0.810214 0.25938,0.29035 0.389876,0.597653 0.359077,0.845563 -0.03748,0.301708 0.05292,0.435373 0.401251,0.593305 0.520231,0.235857 1.06497,1.000823 1.065834,1.496727 3.95e-4,0.226126 0.135728,0.390328 0.399565,0.484815 0.456135,0.16335 0.448862,0.107942 0.236687,1.803826 -0.08797,0.702739 -0.201185,2.157073 -0.251689,3.231854 -0.146038,3.107364 -0.160116,3.363267 -0.285321,5.185998 -0.06531,0.950771 -0.151493,1.880864 -0.191526,2.066884 -0.102531,0.47645 -0.385434,0.42167 -0.388057,-0.0752 -0.004,-0.75937 -0.1726,-1.089813 -0.556043,-1.089813 -0.37459,0 -1.197236,-0.850401 -1.197236,-1.23762 0,-0.365482 -0.348563,-0.55293 -0.861102,-0.463082 -0.525137,0.09211 -1.373117,0.732034 -1.373117,1.036312 0,0.34037 0.519134,0.38043 0.872927,0.0674 0.189503,-0.16769 0.391389,-0.304891 0.448636,-0.304891 0.05719,0 0.360257,0.253661 0.673361,0.563701 0.313102,0.31003 0.746371,0.733533 0.962832,0.941113 0.216461,0.20758 0.393573,0.52724 0.393573,0.71037 0,0.18912 0.241317,0.53979 0.558625,0.81176 0.653105,0.55981 1.356418,1.9109 1.356418,2.60575 0,1.04474 0.59952,2.05301 1.997471,3.3593 0.904873,0.84556 1.872735,1.22407 3.139784,1.2279 0.32397,9.4e-4 0.632288,0.0677 0.68516,0.1483 0.05283,0.0806 -0.08644,0.43569 -0.309547,0.78917 -0.223127,0.35346 -0.485847,0.83201 -0.583818,1.06344 -0.178106,0.42069 -0.17839,0.42076 -1.316801,0.31874 -0.626255,-0.0561 -1.246376,-0.15338 -1.37803,-0.21615 -0.311153,-0.14831 -2.189861,-0.59852 -2.497632,-0.59852 -0.130699,0 -0.550772,-0.20293 -0.933486,-0.45097 -0.382725,-0.24802 -0.804567,-0.45095 -0.93744,-0.45095 -0.407631,0 -3.026107,-1.04747 -3.368313,-1.34744 -1.010402,-0.88569 -4.371157,-2.26021 -5.526277,-2.26021 -0.330076,0 -0.793838,-0.0693 -1.030575,-0.15414 -0.534278,-0.19134 -1.026806,-0.0584 -1.026076,0.27701 9.79e-4,0.54469 0.955054,2.41639 1.72753,3.38977 0.447226,0.56353 0.860534,1.17058 0.918484,1.34898 0.109259,0.33643 0.702462,1.06555 1.76355,2.16763 0.33928,0.35239 0.904132,0.94803 1.255225,1.32362 1.076072,1.15123 4.873681,4.30203 6.423368,5.32935 0.659382,0.43713 0.844283,0.7843 0.518667,0.97386 -0.282732,0.16459 -0.170042,0.66329 0.199478,0.88286 0.197487,0.11736 0.923066,0.33586 1.612391,0.48558 1.369957,0.29755 1.606003,0.52918 1.507361,1.47916 -0.03952,0.38026 -0.120238,0.46198 -0.46873,0.47435 -0.902232,0.032 -1.892979,0.92204 -1.892979,1.70053 0,0.1503 -0.143632,0.44528 -0.319178,0.65549 -0.175546,0.21022 -0.319176,0.4912 -0.319176,0.62442 0,0.333 -0.534371,0.19372 -2.234219,-0.58236 l -1.356488,-0.61932 0.318211,-0.5547 c 0.175557,-0.30604 0.567952,-0.6744 0.875295,-0.82169 0.306398,-0.14684 0.665903,-0.36377 0.798898,-0.48207 0.212581,-0.18907 0.193586,-0.20295 -0.157151,-0.11478 -0.219428,0.0551 -0.50669,0.10216 -0.638344,0.10445 -0.131665,0.002 -0.556776,0.2738 -0.944712,0.60333 -0.387925,0.32954 -0.746992,0.59826 -0.797932,0.59715 -0.22984,-0.005 -3.192757,-1.46503 -3.656508,-1.80182 -2.040328,-1.48177 -4.513894,-3.89562 -4.82655,-4.71004 -0.116357,-0.30311 -0.261979,-0.55112 -0.323586,-0.55112 -0.06156,0 -0.380977,-0.38169 -0.709732,-0.84821 -0.328746,-0.46652 -1.071826,-1.30755 -1.651286,-1.86896 -1.344583,-1.3027 -1.696244,-1.72087 -2.102209,-2.4998 -0.309079,-0.59304 -0.995511,-1.26417 -1.671103,-1.63387 -0.278342,-0.15231 -0.280527,-0.19139 -0.03789,-0.67643 0.697074,-1.39318 0.447335,-2.35996 -0.732691,-2.8364 -0.879205,-0.35499 -1.242365,-0.77689 -2.4655,-2.86438 -0.887769,-1.51513 -1.512531,-2.94509 -1.615958,-3.69862 -0.06693,-0.48736 -0.200799,-1.0688 -0.297581,-1.292103 -0.09681,-0.22331 -0.186792,-0.69681 -0.200048,-1.05224 -0.0514,-1.38022 -0.15075,-1.644357 -0.607839,-1.616755 -0.818938,0.04941 -0.937105,-0.0029 -1.033643,-0.457503 -0.05273,-0.248021 -0.166873,-0.450953 -0.253793,-0.450953 -0.08695,0 -0.481803,-0.19341 -0.877538,-0.4298 -1.335634,-0.797839 -3.291864,-0.741769 -4.696531,0.134608 -0.387874,0.242001 -0.960101,0.485033 -1.271598,0.540072 -0.848132,0.149877 -1.505553,0.576111 -1.94577,1.261518 -0.216888,0.337695 -0.537965,0.794406 -0.713512,1.014923 -0.367394,0.46149 -0.746971,1.556263 -0.767529,2.213723 -0.01422,0.45497 0.301776,3.42864 0.475231,4.47199 0.09203,0.55339 0.08431,0.56369 -0.422512,0.56369 -0.28392,0 -1.008472,0.11191 -1.610116,0.2487 -0.889586,0.20224 -1.139519,0.21302 -1.338173,0.0578 -0.391034,-0.30568 -0.946744,-2.23662 -0.983616,-3.41778 -0.0316,-1.01254 -0.538281,-3.067663 -1.37664,-5.583798 -0.252574,-0.758054 -0.281187,-1.029379 -0.139466,-1.322363 0.09812,-0.202748 0.178309,-0.530687 0.178309,-0.728756 0,-0.198079 0.154966,-0.607522 0.344369,-0.909892 0.488007,-0.779088 0.283695,-1.261699 -0.665873,-1.572863 -0.681117,-0.223199 -0.716529,-0.263461 -0.730698,-0.830811 -0.0082,-0.327935 -0.03362,-1.216994 -0.05659,-1.975686 -0.02286,-0.758693 0.0092,-1.456539 0.07079,-1.550769 0.205685,-0.313467 0.364419,-3.431539 0.241115,-4.736046 -0.03128,-0.330702 0.03463,-1.27771 0.146353,-2.104463 0.111756,-0.826753 0.203298,-1.727275 0.203429,-2.00116 1.82e-4,-0.396007 0.084,-0.527961 0.409236,-0.64444 0.273102,-0.0978 0.463985,-0.09467 0.574511,0.0094 0.09102,0.08574 0.649609,0.155905 1.24129,0.155905 0.614219,0 1.122604,0.07137 1.184932,0.166367 0.07629,0.116231 0.154389,0.104906 0.259247,-0.03758 0.101383,-0.137682 0.113787,-0.08183 0.0383,0.17185 -0.06146,0.206689 -0.165907,0.409619 -0.232105,0.450956 -0.06624,0.04134 -0.120045,0.438383 -0.119658,0.882322 4.16e-4,0.488006 -0.07893,0.853487 -0.200576,0.924321 -0.110689,0.06443 -0.158014,0.223285 -0.105174,0.352995 0.05283,0.129709 0.02743,0.275815 -0.05659,0.324678 -0.08391,0.04886 -0.152619,0.377975 -0.152619,0.731356 v 0.642509 h 0.68316 c 0.375746,0 0.860494,0.104693 1.07722,0.232649 0.321483,0.189808 1.001474,0.418018 1.435108,0.481636 0.04592,0.0068 0.25697,0.164455 0.468953,0.350474 0.259917,0.228086 0.583481,0.338217 0.993672,0.338217 0.334546,0 0.608257,0.05306 0.608257,0.117891 0,0.06484 0.441862,0.315554 0.98192,0.557142 0.889535,0.397917 1.148558,0.441017 2.752874,0.458042 0.974027,0.01034 2.157436,-0.03535 2.629803,-0.101526 0.727651,-0.101939 0.918129,-0.07639 1.246986,0.167261 0.440969,0.326724 0.846526,0.254029 0.846526,-0.151739 0,-0.150498 0.257866,-0.735141 0.573042,-1.299206 0.315174,-0.564067 0.677329,-1.397614 0.804777,-1.852327 0.127451,-0.454715 0.36374,-1.097328 0.525096,-1.428029 0.161356,-0.330701 0.415931,-0.970357 0.565726,-1.421458 0.149798,-0.4511 0.373775,-0.956567 0.497721,-1.123258 0.123954,-0.166691 0.225643,-0.541687 0.225969,-0.833324 8.22e-4,-0.728441 0.525714,-1.50732 1.015806,-1.50732 0.442491,0 1.474297,-0.990088 1.626307,-1.560556 0.05364,-0.201072 0.01952,-0.502726 -0.07577,-0.670342 -0.218889,-0.385237 -0.226091,-1.478518 -0.01057,-1.603983 0.0894,-0.05205 0.404126,-0.546468 0.69933,-1.098682 1.338419,-2.503674 1.71074,-3.074424 2.744231,-4.2068 0.60591,-0.663881 1.237235,-1.25393 1.402949,-1.311217 0.165724,-0.05729 1.08374,-0.773074 2.040065,-1.590634 1.018577,-0.870787 1.874937,-1.486474 2.067549,-1.486474 0.190753,0 0.362642,-0.121964 0.40944,-0.290512 0.04439,-0.159781 0.358507,-0.463706 0.698101,-0.675388 0.339594,-0.211682 1.172053,-0.897203 1.8499,-1.523379 1.490569,-1.376933 1.701719,-1.49943 2.038195,-1.182495 0.137748,0.129753 0.250459,0.33591 0.250459,0.458123 0,0.334069 0.462645,1.131452 0.928623,1.600492 0.402663,0.405318 0.40638,0.42736 0.143061,0.847249 -0.222069,0.35409 -0.232693,0.460556 -0.05942,0.59596 0.154693,0.120928 0.287445,0.112123 0.498208,-0.03304 0.255884,-0.17624 0.265433,-0.262333 0.08726,-0.786626 -0.110101,-0.32357 -0.326572,-0.791428 -0.481092,-1.039453 -0.346238,-0.555757 -0.811717,-2.270332 -0.694486,-2.558099 0.04734,-0.116245 0.225035,-0.252887 0.394832,-0.303648 0.169797,-0.05076 0.634321,-0.357734 1.032282,-0.682157 0.39795,-0.324424 0.795789,-0.589863 0.88408,-0.589863 0.08826,0 0.389134,-0.163089 0.668532,-0.362422 0.279411,-0.199332 0.938903,-0.479039 1.465533,-0.621572 0.526638,-0.142531 1.152783,-0.412991 1.391439,-0.601019 0.238647,-0.188027 0.813159,-0.458159 1.276688,-0.60029 0.463539,-0.142131 0.950513,-0.339145 1.082167,-0.437806 0.131665,-0.09866 0.706177,-0.371533 1.276697,-0.606378 0.570521,-0.234846 1.227333,-0.558807 1.459568,-0.719916 0.232238,-0.161107 0.754538,-0.328202 1.160666,-0.37132 0.853475,-0.09062 1.02493,-0.250911 0.666929,-0.623523 -0.359646,-0.374328 -0.324196,-0.767866 0.06918,-0.767866 0.178299,0 0.363078,-0.118375 0.410617,-0.263058 0.04754,-0.144681 0.163113,-0.395763 0.25684,-0.55796 0.967312,-1.674054 0.953547,-1.633558 0.752354,-2.213041 -0.194888,-0.561337 -0.1423,-1.250198 0.192976,-2.527735 0.124535,-0.474531 0.132184,-1.173049 0.02561,-2.340236 -0.137881,-1.509991 -0.199437,-1.728857 -0.665943,-2.36752 -0.296637,-0.406105 -0.637765,-0.703719 -0.806597,-0.703719 -0.160908,0 -0.484281,-0.236752 -0.718601,-0.526116 -0.307829,-0.380156 -0.549818,-0.526115 -0.872246,-0.526115 -0.24542,0 -0.611822,-0.135287 -0.814236,-0.300637 -0.202403,-0.165351 -0.497263,-0.300638 -0.655256,-0.300638 -0.157982,0 -0.458684,-0.07358 -0.668227,-0.163509 -0.287171,-0.123241 -0.691867,-0.103997 -1.643282,0.07815 -0.694252,0.132909 -1.370008,0.257221 -1.501662,0.276248 -0.357665,0.05169 -0.221804,-1.228198 0.172875,-1.6286 0.245452,-0.249016 0.305881,-0.534933 0.305881,-1.447202 0,-0.738853 0.07131,-1.192643 0.203763,-1.296164 0.112071,-0.08761 0.665355,-0.199903 1.229516,-0.249545 0.564163,-0.04964 1.058328,-0.120945 1.098145,-0.158451 0.03982,-0.0375 0.167918,0.0065 0.284672,0.09775 0.160623,0.125562 0.237569,0.103887 0.31617,-0.08906 0.08127,-0.199378 0.132142,-0.211954 0.233394,-0.05764 0.142555,0.21725 1.223147,0.192624 1.516431,-0.03457 0.09588,-0.07425 0.212319,-0.09915 0.25883,-0.05535 0.159083,0.149844 2.040775,0.143505 2.108345,-0.0071 0.03717,-0.08293 0.141832,-0.04923 0.233373,0.07516 0.139965,0.190193 0.778715,0.225018 4.081611,0.222544 4.472491,-0.0034 4.297463,-0.06893 3.514371,1.31669 -0.441588,0.781344 -0.426493,1.651688 0.04083,2.354424 0.207065,0.31137 0.21117,0.475064 0.02987,1.187246 -0.115717,0.454344 -0.387091,1.069718 -0.603036,1.367498 -0.215953,0.297781 -0.393442,0.717172 -0.394406,0.93198 -0.0021,0.527337 0.7487,1.42018 1.581309,1.879785 0.398429,0.219935 0.808548,0.607466 0.98636,0.932044 0.200207,0.365454 0.47713,0.60963 0.809239,0.713526 0.27766,0.08687 0.592339,0.240359 0.699289,0.341085 0.302276,0.284724 0.594763,1.382437 0.494338,1.855343 -0.06349,0.299057 -0.02499,0.431846 0.128877,0.444334 0.376836,0.03059 0.69038,-0.04034 0.901692,-0.203966 0.16344,-0.126561 0.156133,-0.206895 -0.03707,-0.408014 -0.132328,-0.137733 -0.370194,-0.652269 -0.528587,-1.143416 -0.245351,-0.76082 -0.371184,-0.930112 -0.850158,-1.143767 -0.588389,-0.262465 -0.895641,-0.543407 -1.17826,-1.077365 -0.09284,-0.175453 -0.454742,-0.466675 -0.804169,-0.647163 -0.843602,-0.43574 -1.155466,-0.749604 -1.281381,-1.289597 -0.124533,-0.534089 0.166537,-1.609898 0.665628,-2.460257 0.380682,-0.648584 0.368695,-0.725036 -0.261156,-1.666166 -0.367792,-0.549557 0.0092,-2.002952 0.736102,-2.838645 l 0.593092,-0.681754 1.690412,0.102187 c 0.92972,0.0562 3.018974,0.08525 4.642764,0.06455 1.62381,-0.0207 3.16781,-0.02575 3.43112,-0.01123 0.82929,0.04573 1.38942,0.03704 3.09676,-0.04809 0.91323,-0.04554 1.71475,-0.05119 1.78112,-0.01255 0.0664,0.03864 -0.0982,0.594226 -0.36614,1.234629 -0.36578,0.874806 -0.4969,1.451164 -0.52725,2.317614 -0.0223,0.634285 -0.0882,1.226165 -0.14671,1.315289 -0.0584,0.08912 -0.34084,0.162043 -0.62749,0.162043 -0.28667,0 -1.05377,0.170624 -1.70471,0.379164 -0.9529,0.305277 -1.35751,0.360621 -2.07636,0.284015 -0.83549,-0.08903 -0.97403,-0.05427 -2.15587,0.540984 -1.59691,0.804298 -1.69019,0.88478 -2.13264,1.839868 -1.01097,2.182341 -0.97035,1.897451 -0.74362,5.216966 0.0718,1.050834 0.185,1.652633 0.34163,1.81566 0.12886,0.134118 0.23427,0.292146 0.23427,0.351172 0,0.178689 1.27678,1.747991 1.42216,1.747991 0.0745,0 0.16612,0.40039 0.2037,0.889757 0.0512,0.667852 0.18365,1.046486 0.53068,1.518179 0.27733,0.376968 0.44917,0.79127 0.42942,1.03541 -0.0182,0.223844 0.0698,0.538404 0.19526,0.699023 0.24826,0.317764 0.25487,0.309838 0.50802,-0.609878 0.18746,-0.681131 0.17806,-0.708363 -0.33685,-0.975674 -0.55668,-0.288991 -0.85571,-0.968701 -0.86874,-1.974717 -0.0131,-1.013511 0.1028,-1.058307 2.2395,-0.865553 1.50018,0.135333 1.98965,0.244923 2.7785,0.622101 0.52662,0.251808 1.07849,0.513187 1.22636,0.580842 0.14786,0.06765 0.68645,0.189545 1.19691,0.270864 0.51041,0.08132 1.35893,0.353829 1.88557,0.605576 0.52664,0.251747 1.10909,0.457976 1.29431,0.458287 0.18525,3.1e-4 0.58412,0.158649 0.88639,0.351863 0.30228,0.193216 1.00652,0.580696 1.56498,0.86107 0.86539,0.43446 1.06452,0.614484 1.34784,1.218597 0.34387,0.73322 0.49873,0.824036 2.28737,1.341424 0.33825,0.09784 0.51867,0.24574 0.51867,0.425195 0,0.413569 0.37032,0.624589 1.30827,0.745481 0.94009,0.121167 1.66035,0.49406 1.80954,0.936818 0.054,0.160157 0.29017,0.402836 0.52489,0.539286 0.45758,0.266004 1.47204,1.237604 2.07068,1.983225 0.20201,0.25156 0.56107,0.544603 0.79794,0.651204 0.24289,0.109305 0.45318,0.342342 0.48222,0.534423 0.0284,0.187333 0.40538,0.673893 0.83785,1.081246 0.43246,0.407353 0.7863,0.800389 0.7863,0.873413 0,0.07302 0.72224,0.837235 1.60497,1.698245 0.88275,0.86101 1.71875,1.768402 1.8578,2.016427 0.13905,0.248027 0.57504,0.758688 0.96884,1.134803 0.39379,0.376114 0.86839,0.9276 1.05466,1.225523 0.18625,0.297924 0.6352,0.941375 0.9976,1.429892 0.36244,0.488518 0.71298,1.1198 0.77899,1.402851 0.066,0.283048 0.2123,0.650915 0.32511,0.817478 0.11282,0.166562 0.32049,0.776345 0.46152,1.355073 0.31303,1.284602 0.72477,2.505902 0.90965,2.698222 0.0754,0.07854 0.13731,0.356904 0.13731,0.618583 0,0.261679 0.13044,0.6371 0.28986,0.834268 0.48858,0.604242 1.72013,4.37629 1.52561,4.67274 -0.0411,0.06227 0.003,0.382694 0.0969,0.712056 0.14518,0.507823 0.25829,0.621486 0.74417,0.747853 0.31513,0.08196 0.70144,0.258535 0.85848,0.392392 0.26125,0.2227 0.34825,0.223312 1.02402,0.0072 0.40617,-0.129893 0.87085,-0.236169 1.03261,-0.236169 0.16175,0 0.55191,-0.101465 0.86703,-0.225477 0.37375,-0.147095 1.10354,-0.225479 2.09924,-0.225479 1.69655,0 2.39574,-0.194362 2.90864,-0.808538 0.18096,-0.216707 0.376,-0.394012 0.43341,-0.394012 0.17115,0 0.87652,-0.811492 0.88197,-1.014652 0.003,-0.103344 0.0769,-0.187898 0.16463,-0.187898 0.0877,0 0.15959,-0.135287 0.15959,-0.300637 0,-0.165351 0.0603,-0.300638 0.13404,-0.300638 0.22931,0 0.89795,-2.420454 1.05886,-3.833129 0.16289,-1.429909 0.14578,-1.407353 0.9378,-1.236641 0.57281,0.123467 0.71198,0.225636 0.83437,0.612588 0.0987,0.312261 0.27608,0.492449 0.5413,0.549998 0.48856,0.106018 0.80422,1.073895 0.49993,1.532851 -0.10288,0.155155 -0.14446,0.346991 -0.0925,0.426304 0.052,0.07931 0.0222,0.144205 -0.0662,0.144205 -0.0969,0 -0.0751,0.194216 0.0545,0.488535 0.11845,0.268695 0.24046,0.75911 0.27114,1.089811 0.0306,0.330701 0.12758,0.657157 0.21536,0.725457 0.10338,0.08045 0.0893,0.151031 -0.04,0.200426 -0.24782,0.09472 -0.26616,0.953101 -0.0203,0.953101 0.12166,0 0.11367,0.07428 -0.0251,0.23156 -0.15716,0.178361 -0.18108,0.82867 -0.10423,2.830602 0.0624,1.625883 0.0413,2.654154 -0.0565,2.746226 -0.086,0.08095 -0.17349,0.7272 -0.19458,1.43611 -0.0325,1.096283 0.008,1.337368 0.27153,1.613021 0.2918,0.30522 0.29464,0.348374 0.0488,0.740466 -0.17975,0.286614 -0.31924,1.116111 -0.44766,2.662065 -0.10259,1.235137 -0.18104,2.313349 -0.17432,2.396029 0.007,0.0827 0.06,0.470413 0.11833,0.861663 0.13124,0.87985 -0.14337,1.04683 -0.968,0.58854 -0.76601,-0.42571 -2.01797,-0.75739 -2.5186,-0.66725 -0.34757,0.0625 -0.59733,-0.0947 -1.52712,-0.961853 -1.50872,-1.407074 -2.80669,-2.151042 -3.75286,-2.151042 -0.3985,0 -0.76893,-0.06759 -0.82318,-0.150314 -0.16107,-0.245477 -0.72265,-0.172212 -1.31264,0.171245 -0.4667,0.271684 -0.63625,0.297302 -1.09327,0.165185 -0.44247,-0.127906 -0.6492,-0.104369 -1.13597,0.129394 -0.3273,0.157172 -0.78484,0.285768 -1.01679,0.285768 -0.93911,0 -1.90643,1.479894 -2.0059,3.068807 -0.0654,1.04634 -1.05312,3.48194 -1.81201,4.46873 -0.26427,0.34362 -0.48576,0.73301 -0.49222,0.86529 -0.006,0.13227 -0.32587,0.71401 -0.70986,1.29273 -0.7121,1.07325 -1.37357,2.2533 -1.64571,2.93597 -0.0835,0.20931 -0.62623,1.04442 -1.2062,1.85583 -0.58,0.8114 -1.05453,1.55562 -1.05453,1.65382 0,0.21931 -1.00171,1.70156 -1.31472,1.94542 -0.30108,0.23457 -1.39785,1.68484 -1.39968,1.85078 -7.8e-4,0.0716 -0.35388,0.51802 -0.78468,0.99205 -0.4308,0.47403 -0.82773,1.05255 -0.88206,1.28561 -0.0687,0.29411 -0.71951,0.9493 -2.12779,2.14169 -1.11592,0.94489 -2.29997,1.98589 -2.63123,2.31338 -0.58615,0.57945 -0.61702,0.59036 -1.15378,0.40754 -0.4629,-0.15766 -0.70693,-0.14677 -1.51863,0.0678 -1.10922,0.29316 -1.59274,0.74801 -1.59274,1.49831 0,0.74424 -0.13755,0.95244 -0.85751,1.29782 -0.36221,0.17375 -0.89088,0.48252 -1.17483,0.68614 -0.32086,0.23013 -0.86442,0.41746 -1.43627,0.495 -1.45441,0.19724 -1.85282,0.31111 -2.2354,0.63887 -0.24262,0.20789 -0.65364,0.32929 -1.27669,0.37711 -0.66558,0.0511 -1.10272,0.18918 -1.58594,0.50099 -0.36691,0.23678 -0.86961,0.43151 -1.11712,0.43277 -0.94224,0.005 -2.92361,0.85442 -2.92361,1.25369 0,0.0957 0.0659,0.39068 0.1466,0.65548 0.0805,0.2648 0.19015,1.31282 0.24339,2.32895 0.0532,1.01614 0.16491,2.35484 0.24816,2.9749 0.0833,0.62006 0.18726,1.63471 0.23115,2.25478 0.044,0.62006 0.19559,1.49943 0.33712,1.95414 0.14153,0.45472 0.32402,1.0834 0.40557,1.39706 0.2057,0.7914 0.82033,1.6164 1.76047,2.3631 l 0.79789,0.63372 -0.36754,0.36853 -0.36756,0.36853 0.34881,0.25302 c 0.44206,0.32063 0.67577,0.90407 0.57033,1.42371 -0.115,0.56658 0.37446,0.73427 0.77689,0.26617 0.17131,-0.19928 0.39396,-0.30577 0.5337,-0.25527 0.25129,0.0908 0.31078,0.51298 0.26405,1.87366 -0.0236,0.68383 0.0124,0.79323 0.24703,0.75069 0.51618,-0.0937 0.60096,-1.3497 0.17882,-2.64897 -0.31652,-0.97424 0.18381,-1.53279 1.37307,-1.53279 0.73996,0 0.92608,0.27102 0.80016,1.16514 -0.0935,0.66333 -0.0643,0.77193 0.27634,1.02839 0.20942,0.1577 0.59418,0.57277 0.85504,0.92237 0.26087,0.34962 0.56405,0.6371 0.67378,0.63886 0.28734,0.005 0.2611,-0.0727 -0.3674,-1.08276 -0.31181,-0.50108 -0.53409,-0.99158 -0.494,-1.09 0.051,-0.12539 0.32399,-0.14857 0.91223,-0.0775 0.66546,0.0804 0.93251,0.19963 1.28898,0.57543 0.40167,0.42344 0.43924,0.55027 0.35212,1.18876 -0.0775,0.56784 -0.0566,0.67861 0.10181,0.53894 0.34209,-0.30167 0.46105,-1.36526 0.23266,-2.08006 -0.12517,-0.39175 -0.16051,-0.82511 -0.088,-1.0785 0.11368,-0.39704 0.17013,-0.42173 0.90036,-0.39383 0.42849,0.0163 0.86826,-0.04 0.97726,-0.12516 0.10902,-0.0852 0.34281,-0.11169 0.51955,-0.0588 0.17675,0.0528 0.57604,0.0298 0.88734,-0.0511 0.48278,-0.12556 0.67076,-0.0921 1.27859,0.22795 0.39193,0.20633 0.77817,0.33697 0.8583,0.29031 0.0802,-0.0467 0.26297,0.0838 0.40624,0.28968 0.16181,0.23262 0.41059,0.37451 0.65659,0.37451 0.21784,0 0.76484,0.16757 1.21555,0.37237 0.98158,0.44603 2.51592,0.75357 3.08653,0.61868 0.22669,-0.0536 0.49549,-0.26973 0.59735,-0.48032 0.15905,-0.32879 0.25753,-0.37012 0.69702,-0.29246 0.31866,0.0563 0.59304,0.0181 0.72699,-0.10149 0.13008,-0.11605 0.6253,-0.19067 1.25248,-0.18872 0.57052,0.002 1.25275,-0.0533 1.51607,-0.12238 0.26332,-0.0691 0.80193,-0.1218 1.19691,-0.11713 0.60168,0.008 1.61105,-0.30411 1.91504,-0.59047 0.22578,-0.21264 1.12029,-0.59122 1.75546,-0.74292 0.72192,-0.17243 0.82997,-0.21003 1.98723,-0.69127 0.42682,-0.17747 0.64983,-0.20834 0.6898,-0.0954 0.0324,0.0918 0.23716,0.41409 0.45486,0.71627 0.31202,0.43307 0.37108,0.64895 0.27899,1.01959 -0.0643,0.25861 -0.10013,0.61385 -0.0795,0.78941 0.052,0.4452 -0.34076,0.76295 -1.09121,0.88239 -0.95109,0.15134 -1.92797,-0.3898 -2.16973,-1.20193 -0.17128,-0.57539 -0.68823,-0.9306 -0.72654,-0.49923 -0.0849,0.95707 0.27697,1.54765 1.18712,1.93688 1.03185,0.44129 1.90925,0.3853 2.50105,-0.15961 0.26936,-0.24803 0.4404,-0.45096 0.38004,-0.45096 -0.0603,0 0.0377,-0.12055 0.21821,-0.26788 0.37642,-0.30751 0.48494,-0.98905 0.24457,-1.53595 -0.0907,-0.20668 -0.23152,-0.57872 -0.31257,-0.82675 -0.0934,-0.28585 -0.24667,-0.44331 -0.4186,-0.43007 -0.47317,0.0365 -0.29905,-0.15582 0.74535,-0.82293 0.59591,-0.38062 1.27286,-0.68156 1.63577,-0.72718 0.60261,-0.0758 0.6201,-0.065 0.65412,0.40508 0.0193,0.2656 0.13676,0.55954 0.26122,0.65321 0.12444,0.0937 0.38276,0.57616 0.57402,1.07221 0.19125,0.49606 0.45718,1.06102 0.59096,1.25548 0.13377,0.19446 0.20901,0.47678 0.16719,0.62739 -0.0418,0.15061 0.032,0.66794 0.16419,1.14963 0.13211,0.48168 0.27249,1.18018 0.31194,1.55222 0.0396,0.37205 0.16819,0.87937 0.28604,1.12739 0.11788,0.24803 0.26469,0.85682 0.32624,1.35287 0.0615,0.49606 0.22382,1.12977 0.36054,1.40826 0.19224,0.39164 0.2068,0.56191 0.0643,0.75159 -0.10145,0.13489 -0.2899,0.46604 -0.41893,0.7359 -0.129,0.26987 -0.32757,0.52389 -0.44123,0.56449 -0.11368,0.0406 -0.70939,-0.0335 -1.3238,-0.16471 -0.61441,-0.1312 -1.40437,-0.29211 -1.75546,-0.35757 -0.35109,-0.0655 -1.17696,-0.3346 -1.83524,-0.59807 -1.03778,-0.41534 -3.15837,-0.82826 -3.98968,-0.77688 -5.09612,0.31499 -8.43252,0.65087 -9.92738,0.99942 -0.30732,0.0717 -0.59725,0.005 -1.00482,-0.23278 -0.48308,-0.28122 -0.74656,-0.32423 -1.681,-0.2745 -1.06418,0.0567 -1.13693,0.0856 -1.83445,0.73039 l -0.7263,0.67141 -2.90586,0.016 c -1.59823,0.009 -3.98309,0.0555 -5.29967,0.10371 -1.3166,0.0482 -4.26097,0.11774 -6.54307,0.15448 -3.24442,0.0522 -4.3201,0.11979 -4.93268,0.30986 -0.43085,0.13368 -0.91375,0.24307 -1.0731,0.24307 -0.33677,0 -0.70085,-0.59389 -0.86293,-1.40765 -0.0632,-0.31769 -0.22846,-0.60862 -0.37276,-0.6565 -0.14251,-0.0474 -0.38026,-0.18382 -0.52834,-0.30336 -0.29743,-0.24013 -0.60851,-0.13955 -0.60851,0.19675 0,0.15507 -0.195241,0.21661 -0.687125,0.21661 -0.478438,0 -0.847952,0.11175 -1.216587,0.36792 -0.291182,0.20236 -0.735858,0.41064 -0.988156,0.46283 -0.271782,0.0563 -0.692253,0.36334 -1.031713,0.75355 -0.315147,0.36224 -0.717646,0.70188 -0.894452,0.75474 -0.485347,0.14511 -3.451443,-0.21766 -4.358207,-0.53302 -1.504465,-0.52321 -2.693979,-0.59352 -3.909882,-0.2311 -0.40496,0.12069 -1.762057,0.2535 -3.111941,0.30453 -1.316588,0.0498 -2.860597,0.14525 -3.431118,0.21218 -0.57052,0.0669 -1.18094,0.073 -1.356488,0.0134 -0.463639,-0.15731 -2.990128,-0.53076 -3.271539,-0.48358 -0.131655,0.0221 -1.855192,0.0726 -3.830083,0.11215 -1.974891,0.0397 -4.021589,0.12234 -4.548227,0.18386 -0.52664,0.0616 -1.460219,0.0691 -2.074631,0.0168 -0.614413,-0.0523 -1.5839,-0.0329 -2.15442,0.043 -0.57052,0.076 -2.078622,0.16466 -3.351328,0.19706 -1.272706,0.0324 -2.489463,0.12082 -2.703914,0.19647 -0.266234,0.0939 -0.683291,0.0635 -1.314892,-0.0959 -0.77985,-0.19681 -1.031663,-0.20321 -1.604924,-0.0408 -1.037656,0.294 -1.457557,0.34265 -1.691156,0.19594 z m 31.999819,-1.80619 c -0.132659,-0.62477 -0.738997,-1.52582 -1.026766,-1.52582 -0.218991,0 -0.217131,0.0325 0.01574,0.2749 0.145267,0.15119 0.264113,0.39441 0.264113,0.5405 0,0.32669 0.493972,1.13874 0.692708,1.13874 0.07985,0 0.104198,-0.19274 0.05414,-0.42832 z m 4.362209,-0.36085 c 9.79e-4,-0.10334 -0.155932,-0.64586 -0.349346,-1.2056 -0.340346,-0.98499 -0.639807,-1.23311 -0.737818,-0.61132 -0.0713,0.45251 0.592186,2.00482 0.856938,2.00482 0.125346,0 0.228956,-0.0845 0.230226,-0.1879 z m 3.827768,0.10271 c 0,-0.0469 -0.168202,-0.30052 -0.373796,-0.56369 -0.205583,-0.26318 -0.441528,-0.71479 -0.524312,-1.00359 -0.08512,-0.29692 -0.267872,-0.54637 -0.420573,-0.57407 -0.225207,-0.0408 -0.260811,0.0539 -0.214349,0.56998 0.04997,0.55519 0.433564,1.16147 0.974475,1.54021 0.188833,0.13222 0.558555,0.15284 0.558555,0.0312 z m 4.545333,-0.21104 c 0.05272,-0.0802 -0.08675,-0.18904 -0.309742,-0.24177 -0.223024,-0.0527 -0.405507,-0.15161 -0.405507,-0.21975 0,-0.25684 -0.641981,-0.31252 -0.891658,-0.0773 -0.230063,0.2167 -0.205361,0.2569 0.279765,0.45534 0.62202,0.25445 1.191484,0.29029 1.327142,0.0836 z m 5.668232,-0.005 c 0,-0.0827 -0.10772,-0.15033 -0.23938,-0.15033 -0.13165,0 -0.23938,0.0677 -0.23938,0.15033 0,0.0827 0.10773,0.15031 0.23938,0.15031 0.13166,0 0.23938,-0.0676 0.23938,-0.15031 z m -7.748684,-0.28735 c 0.04947,-0.0754 -0.269475,-0.38553 -0.708717,-0.68923 -0.439252,-0.30373 -0.798643,-0.6141 -0.798643,-0.68974 0,-0.0757 -0.143621,-0.13751 -0.319168,-0.13751 -0.205846,0 -0.319177,0.10022 -0.319177,0.28223 0,0.32894 0.240273,0.53826 0.797932,0.6951 0.219438,0.0618 0.527442,0.2391 0.684472,0.39419 0.313194,0.30935 0.525054,0.35565 0.663301,0.14496 z m -31.705855,-0.58624 c 0.03525,-0.0997 -0.0836,-0.1785 -0.269301,-0.1785 -0.331519,0 -0.430873,0.15784 -0.22276,0.35388 0.147856,0.13925 0.414325,0.0443 0.492061,-0.17538 z m 47.059649,0.0405 c 0.0519,-0.12757 0.0463,-0.27739 -0.0127,-0.3329 -0.13072,-0.12311 -0.60761,0.14326 -0.69412,0.3877 -0.0945,0.26721 0.59744,0.21356 0.70678,-0.0548 z m 7.79638,-0.62179 c 0.43813,-0.46957 0.91401,-0.95998 1.05753,-1.08981 1.0002,-0.90485 1.19535,-2.32068 0.56086,-4.06919 -0.27829,-0.76687 -0.43056,-0.9874 -0.70786,-1.0251 -0.4678,-0.0636 -0.45282,0.18347 0.077,1.27 0.35455,0.72703 0.4266,1.07801 0.40902,1.99231 -0.0236,1.23072 0.14004,1.00345 -1.98904,2.76138 -0.58325,0.48157 -0.79591,1.01416 -0.40496,1.01416 0.11046,0 0.5593,-0.38418 0.99741,-0.85375 z m -60.250488,0.59069 c -0.003,-0.0619 -0.110516,-0.24404 -0.239378,-0.40452 -0.128871,-0.16049 -0.234309,-0.41627 -0.234309,-0.56841 0,-0.50733 -0.782412,-0.4744 -0.794895,0.0335 -0.0071,0.28861 0.683882,1.05223 0.952137,1.05223 0.176836,0 0.319237,-0.0508 0.316445,-0.11275 z m 54.132378,-0.28636 c 0.4249,-0.3622 0.35832,-0.58441 -0.18692,-0.62355 -0.40644,-0.0291 -0.47877,0.019 -0.47877,0.31878 0,0.58802 0.21691,0.68733 0.66569,0.30477 z m -29.962167,-1.11596 c -0.511099,-0.50249 -0.707043,-0.55149 -0.703099,-0.17583 0.003,0.31001 1.004652,1.024 1.091593,0.77831 0.03189,-0.09 -0.142982,-0.36109 -0.388494,-0.60248 z m 8.55018,0.44694 c 0,-0.0738 -0.143621,-0.13423 -0.319166,-0.13423 -0.311073,0 -0.41589,0.15944 -0.223787,0.34038 0.127855,0.12043 0.542953,-0.0371 0.542953,-0.20615 z m -6.263741,-0.0966 c 0.08726,-0.24685 -0.412761,-0.42305 -0.627231,-0.22104 -0.09182,0.0865 -0.116163,0.23447 -0.05414,0.32892 0.141,0.2149 0.592593,0.14339 0.681423,-0.10788 z m 20.227598,-0.0376 c 0,-0.26451 -0.83537,-0.40066 -1.07477,-0.17517 -0.26832,0.25275 0.0415,0.49511 0.57109,0.4467 0.31959,-0.0292 0.50368,-0.12846 0.50368,-0.27153 z m 5.50574,-0.19619 c 0,-0.1079 0.35909,-0.52032 0.79795,-0.91648 0.7693,-0.69447 1.00685,-1.14211 0.60603,-1.14211 -0.24614,0 -1.2444,0.90702 -1.2444,1.13068 0,0.0934 -0.17953,0.32865 -0.39896,0.52283 -0.48211,0.42662 -0.50529,0.60127 -0.0798,0.60127 0.17554,0 0.31916,-0.0883 0.31916,-0.19619 z m 3.45938,-0.43446 c 0.0889,-0.10786 0.20709,-0.3162 0.26269,-0.46298 0.0761,-0.20095 -0.0358,-0.16382 -0.45399,0.15032 -0.59668,0.44846 -0.78531,0.91963 -0.2627,0.65617 0.16083,-0.0811 0.36512,-0.23565 0.454,-0.34351 z m -24.919106,-0.41456 c -0.445093,-0.66412 -0.808161,-0.8887 -1.057321,-0.65402 -0.183306,0.17267 0.409998,0.94763 0.725488,0.94763 0.114538,0 0.299095,0.10311 0.410119,0.22912 0.387377,0.43965 0.335776,0.0951 -0.07832,-0.52273 z m 28.553456,0.40123 c 0.30272,-0.43516 0.38188,-1.03311 0.14723,-1.11205 -0.21233,-0.0714 -0.90543,1.11039 -0.77118,1.31497 0.15204,0.23173 0.37116,0.16046 0.62395,-0.20292 z m -9.88648,0.0427 c 0.0559,-0.0852 -0.0781,-0.15033 -0.30975,-0.15033 -0.22463,0 -0.40841,0.0676 -0.40841,0.15033 0,0.0827 0.13938,0.15031 0.30977,0.15031 0.17037,0 0.35414,-0.0676 0.40839,-0.15031 z m 7.95811,-0.38808 c 0.15599,-0.49466 0.21961,-0.61138 0.63467,-1.16437 0.38202,-0.50893 0.27548,-0.81679 -0.13756,-0.39753 -0.17396,0.1766 -0.51379,0.51179 -0.75516,0.74487 -0.44398,0.42874 -0.52003,0.68065 -0.3394,1.124 0.14355,0.35236 0.43707,0.20154 0.59745,-0.30697 z m -57.066441,0.21304 c -0.03403,-0.0963 -0.202058,-0.26267 -0.373307,-0.36977 -0.37722,-0.2359 -0.797649,-0.0412 -0.656934,0.30416 0.115027,0.28233 1.129808,0.34696 1.030241,0.0656 z m 44.749931,0.08 c 0.77644,-0.12092 0.98408,-0.54044 0.2487,-0.50254 -0.98661,0.0509 -1.1727,-0.007 -1.77956,-0.54531 -0.55986,-0.49741 -0.63048,-0.52189 -0.866,-0.30005 -0.23552,0.22184 -0.23028,0.26619 0.0643,0.5437 0.34868,0.32844 1.32752,0.87771 1.58411,0.88893 0.0878,0.004 0.42455,-0.0343 0.7484,-0.0847 z m 5.57084,-0.33142 c 0.40351,-0.17148 0.91399,-0.53463 1.13435,-0.80701 0.5189,-0.64133 1.24391,-1.992 1.24391,-2.31736 0,-0.23204 -0.0274,-0.23049 -0.31919,0.0183 -0.17554,0.14965 -0.31918,0.32792 -0.31918,0.39618 0,0.31848 -1.18945,1.82145 -1.94808,2.46158 -0.46457,0.392 -0.77286,0.67838 -0.68509,0.6364 0.0877,-0.042 0.48974,-0.21662 0.89328,-0.3881 z m 23.16104,0.13102 c 0.78109,-0.57872 0.63928,-1.95938 -0.20126,-1.95938 -0.15121,0 -0.36431,-0.10146 -0.47357,-0.22548 -0.26985,-0.30628 -0.75896,-0.28475 -0.8539,0.0376 -0.22058,0.74887 -0.27582,2.02176 -0.0967,2.22515 0.27393,0.31089 1.15781,0.26854 1.62535,-0.0779 z m -0.98254,-0.2992 c -0.36555,-0.2128 -0.1278,-0.80402 0.37383,-0.92964 0.6388,-0.15998 0.77165,-0.0366 0.49775,0.46233 -0.25998,0.47354 -0.57278,0.64126 -0.87158,0.46731 z m -69.304108,0.26391 c 0.260638,-0.24551 0.240689,-0.4209 -0.04785,-0.4209 -0.131654,0 -0.239377,0.0283 -0.239377,0.0628 0,0.0346 -0.04357,0.16987 -0.09691,0.30065 -0.114295,0.28053 0.111409,0.31425 0.384125,0.0574 z m 32.906815,-0.19509 c 0,-0.124 -0.107713,-0.22547 -0.239377,-0.22547 -0.249201,0 -0.316607,0.17778 -0.132985,0.35074 0.183623,0.17297 0.372362,0.10947 0.372362,-0.12527 z m 12.751893,-0.17995 c 0.3155,-0.22298 0.60954,-0.44776 0.65342,-0.49949 0.044,-0.0517 0.20546,-0.13775 0.35906,-0.19114 0.34317,-0.11925 0.37142,-0.55744 0.0358,-0.55744 -0.13383,0 -0.31158,0.1691 -0.39502,0.37579 -0.12125,0.30043 -0.26189,0.3758 -0.70113,0.3758 -0.97249,0 -1.32016,0.29075 -0.86281,0.72153 0.25477,0.23998 0.25146,0.2408 0.91053,-0.22505 z m 35.76256,-0.42132 c 0,-0.24747 -0.43715,-0.41053 -0.56761,-0.21171 -0.0545,0.0831 -0.0596,0.24803 -0.0112,0.3667 0.10373,0.25463 0.57875,0.12743 0.57875,-0.15499 z m -58.343463,-0.54818 c -0.04632,-0.0705 -0.18218,-0.12833 -0.301929,-0.12833 -0.119741,0 -0.431076,-0.16911 -0.691856,-0.37579 -0.487633,-0.38649 -0.899671,-0.47963 -1.057524,-0.23905 -0.324143,0.49403 1.091369,1.31963 1.766079,1.03007 0.203185,-0.0872 0.331539,-0.2163 0.28523,-0.2869 z m 29.806593,-1.17583 c 0.0454,-1.27541 0.0205,-1.42902 -0.23864,-1.47843 -0.26595,-0.0508 -0.28248,0.0457 -0.20543,1.19782 0.0461,0.68912 0.0865,1.41867 0.0898,1.62123 0.004,0.22976 0.0619,0.31457 0.15486,0.22548 0.0818,-0.0786 0.17166,-0.78329 0.19948,-1.5661 z m 24.86635,1.18895 c 0,-0.1886 -0.10953,-0.29177 -0.30976,-0.29177 -0.43162,0 -0.53842,0.23184 -0.2374,0.51538 0.30103,0.28355 0.54716,0.18295 0.54716,-0.22361 z m -76.282545,-0.36192 c 0,-0.3245 -1.076906,-1.28272 -1.441611,-1.28272 -0.509472,0 -0.359594,0.43528 0.243086,0.70598 0.306317,0.13759 0.598415,0.37324 0.649102,0.52368 0.109855,0.32602 0.549423,0.36846 0.549423,0.0531 z m 55.217065,-0.0891 c 0,-0.0778 -0.0718,-0.14146 -0.15958,-0.14146 -0.0877,0 -0.15959,0.10546 -0.15959,0.23435 0,0.1289 0.0718,0.19256 0.15959,0.14146 0.0878,-0.0511 0.15958,-0.15656 0.15958,-0.23435 z m 9.61512,-0.1472 c 0.36192,-0.096 0.59845,-0.25086 0.59845,-0.39187 0,-0.19724 -0.15369,-0.21667 -0.99741,-0.12603 -1.3268,0.14253 -1.80531,0.38807 -1.43629,0.73704 0.12985,0.12279 0.8866,0.0324 1.83525,-0.21914 z m -21.6107,-0.42212 c 0.94725,-0.82369 0.87755,-1.31886 -0.0808,-0.57479 -0.24812,0.19262 -0.57678,0.39342 -0.7304,0.44624 -0.28008,0.0963 -0.37203,0.41893 -0.17287,0.60652 0.18362,0.17297 0.30134,0.1158 0.98414,-0.47797 z m 19.2195,0.48803 c 0.21167,-0.19936 -0.26111,-0.81176 -0.62667,-0.81176 -0.43781,0 -0.47985,0.24128 -0.10924,0.62701 0.26638,0.27726 0.55958,0.35086 0.73591,0.18475 z m -54.970433,-0.47181 c -0.06125,-0.29972 -0.460542,-0.40746 -1.01991,-0.27522 -0.517832,0.12242 -0.489777,0.35151 0.05251,0.42889 0.918221,0.13102 1.022226,0.1145 0.967393,-0.15367 z m 19.294802,-4.19269 c 0.03302,-0.0949 -0.19962,-0.21566 -0.527178,-0.27354 -0.720418,-0.1273 -1.664024,-0.67353 -2.132386,-1.23439 -0.49836,-0.59677 -1.064148,-0.90993 -1.842588,-1.01989 -0.790892,-0.11171 -1.516907,0.14203 -1.516907,0.53016 0,0.23154 0.07213,0.24562 0.580676,0.11337 0.987426,-0.25682 1.588755,-0.0461 2.533752,0.88761 0.470081,0.46451 1.092722,0.92741 1.383629,1.0287 0.634128,0.22077 1.438948,0.20383 1.521002,-0.032 z m 18.716921,-0.61035 c 0,-0.19089 -0.0737,-0.34707 -0.16355,-0.34707 -0.22697,0 -0.50896,0.75212 -0.39013,1.04057 0.0847,0.20575 0.12789,0.19852 0.3257,-0.0547 0.12539,-0.16049 0.22798,-0.44798 0.22798,-0.63886 z m -6.90417,0.25248 c 0.0228,-0.12307 -0.0277,-0.32522 -0.11208,-0.44923 -0.13501,-0.19816 -0.18595,-0.19503 -0.42059,0.026 -0.15282,0.14391 -0.22374,0.35755 -0.16585,0.49965 0.12111,0.29727 0.63968,0.24059 0.69852,-0.0764 z m 2.64141,-0.48681 c 0.20985,-0.2687 0.53276,-0.77106 0.7176,-1.11636 0.18485,-0.34531 0.42703,-0.76501 0.53819,-0.93266 0.11116,-0.16766 0.15163,-0.35239 0.0899,-0.41053 -0.16158,-0.15219 -1.00651,0.72541 -1.12439,1.16785 -0.0549,0.20581 -0.28108,0.62591 -0.50272,0.93356 -0.22167,0.30767 -0.40302,0.62403 -0.40302,0.70303 0,0.28894 0.3124,0.13152 0.68444,-0.34489 z m 1.80036,0.15032 c 0.0618,-0.18602 0.24624,-0.49954 0.40972,-0.69671 0.16348,-0.19717 0.29446,-0.50156 0.2911,-0.67643 -0.005,-0.26108 -0.13291,-0.18352 -0.71487,0.43365 -0.3898,0.41337 -0.71022,0.86997 -0.71202,1.01465 -0.005,0.39321 0.59079,0.33155 0.72607,-0.0752 z m -6.793657,-1.61915 c 0,-0.23536 -0.741323,-0.50049 -1.067022,-0.38161 -0.275742,0.10067 -0.274778,0.11584 0.02031,0.32041 0.357244,0.24765 1.0467,0.28796 1.0467,0.0612 z m -8.49799,-0.78518 c 0.109714,-0.0827 0.199478,-0.20969 0.199478,-0.28223 0,-0.16468 -1.40366,-0.15449 -1.835253,0.0133 -0.287952,0.11196 -0.264537,0.14699 0.239389,0.35811 0.552531,0.23149 1.009578,0.20229 1.396386,-0.0892 z m 12.808607,-0.45173 c 0.4332,-0.66923 0.42441,-1.00213 -0.0166,-0.62625 -0.43229,0.36849 -0.66366,0.78175 -0.54172,0.96757 0.14887,0.22689 0.2177,0.18481 0.55827,-0.34132 z m -15.162515,0.11275 c -0.109266,-0.12402 -0.286947,-0.22549 -0.394842,-0.22549 -0.107895,0 -0.421607,-0.20292 -0.697147,-0.45095 -0.577347,-0.5197 -0.823053,-0.56974 -0.823053,-0.16761 0,0.40872 1.075076,1.00826 1.894686,1.05661 0.176695,0.0104 0.180625,-0.0306 0.02032,-0.21256 z m 2.389175,-1.37446 c 0.12868,-0.11969 -0.375551,-0.3495 -0.772182,-0.35191 -0.226507,-9.4e-4 -0.63625,-0.2457 -1.022977,-0.60996 -0.67289,-0.63381 -1.15257,-0.72537 -1.15257,-0.21998 0,0.19566 0.242892,0.42015 0.718143,0.66374 0.394974,0.20245 0.779273,0.46367 0.853993,0.58051 0.09853,0.15405 0.295825,0.18426 0.718145,0.10997 0.320252,-0.0564 0.616106,-0.1339 0.657448,-0.17237 z m 13.8887,-0.46554 c 0,-0.4549 -0.10299,-0.42781 -0.39489,0.10386 -0.31941,0.58181 -0.30743,0.6489 0.0756,0.42354 0.17556,-0.10326 0.31919,-0.34058 0.31919,-0.5274 z m 1.1748,0.3368 c -0.0506,-0.12401 -0.19188,-0.22548 -0.31415,-0.22548 -0.12228,0 -0.22232,0.10147 -0.22232,0.22548 0,0.12407 0.14131,0.22548 0.31417,0.22548 0.21369,0 0.28479,-0.0722 0.2223,-0.22548 z m -13.247303,-0.0391 c 0.154571,-0.23557 -0.361016,-1.0883 -0.658029,-1.0883 -0.163988,0 -0.600019,-0.24338 -0.968969,-0.54085 -0.616088,-0.49673 -1.142097,-0.60099 -1.142097,-0.22637 0,0.22648 0.808243,0.76722 1.14678,0.76722 0.197324,0 0.386757,0.18251 0.534043,0.51454 0.197519,0.44528 0.392091,0.58977 0.903046,0.67056 0.06063,0.01 0.143997,-0.0339 0.185226,-0.0968 z m 6.28009,-0.50598 c 0.289319,-0.16842 0.526035,-0.36623 0.526035,-0.43957 0,-0.15475 -0.420221,-0.0306 -0.873338,0.25801 -0.458223,0.29184 -0.984415,0.24585 -1.343797,-0.1175 -0.270408,-0.2734 -0.399959,-0.29896 -0.923838,-0.18226 -0.800044,0.17822 -0.805031,0.54035 -0.0092,0.66221 0.330107,0.0506 0.653276,0.14208 0.718135,0.20342 0.189533,0.17924 1.334413,-0.0515 1.905925,-0.38431 z m 6.216563,-0.51483 c 0.12971,-0.31839 -0.54894,-0.96943 -1.01055,-0.96943 -0.50335,0 -0.48118,0.41899 0.0318,0.60274 0.22169,0.0794 0.44481,0.24682 0.49586,0.37208 0.11991,0.29437 0.36177,0.29167 0.48278,-0.006 z m -4.73301,-0.52734 c 0,-0.0778 -0.0718,-0.14145 -0.15958,-0.14145 -0.0877,0 -0.1596,0.10546 -0.1596,0.23435 0,0.1289 0.0718,0.19254 0.1596,0.14144 0.0877,-0.0511 0.15958,-0.15655 0.15958,-0.23434 z m -2.167471,0.0679 c 0.138828,-0.0502 0.252422,-0.15613 0.252422,-0.23545 0,-0.21024 -0.841245,-0.0832 -0.918608,0.13881 -0.06978,0.20032 0.250705,0.24682 0.666186,0.0967 z m -2.609648,-0.51532 c 0.424258,-0.21386 0.387456,-0.44566 -0.07071,-0.44566 -0.396123,0 -0.811525,0.33129 -0.629905,0.50236 0.147756,0.13918 0.343516,0.12334 0.700654,-0.0566 z m 1.425792,-0.83033 c 0,-0.1289 -0.07181,-0.19255 -0.159588,-0.14145 -0.08777,0.0511 -0.159589,0.15656 -0.159589,0.23435 0,0.0778 0.07182,0.14145 0.159589,0.14145 0.08777,0 0.159588,-0.10546 0.159588,-0.23435 z m 1.755458,-0.96291 c 0,-0.20547 -0.612404,-0.48909 -0.808979,-0.37465 -0.236308,0.13756 0.138209,0.51967 0.509341,0.51967 0.164806,0 0.299638,-0.0653 0.299638,-0.14502 z m -3.754504,-1.72498 c 0.69987,-0.3573 1.341607,-0.75284 1.426099,-0.87901 0.100764,-0.15041 0.08898,-0.43266 -0.03422,-0.81987 -0.202738,-0.63737 -0.670604,-0.94068 -1.451035,-0.94068 -0.876381,0 -2.410232,1.4138 -2.410232,2.22158 0,0.27829 0.829676,1.0981 1.08946,1.07651 0.05912,-0.005 0.680061,-0.30125 1.37992,-0.65853 z m -1.756844,-0.243 c -0.376631,-0.57399 0.778499,-1.61262 1.866599,-1.67832 0.641513,-0.0387 0.695948,-0.0128 0.740855,0.35167 0.09264,0.75234 -2.214186,1.92602 -2.607454,1.32665 z m 7.949397,0.44405 c 0.44582,-0.47855 0.54659,-0.73614 0.28798,-0.73614 -0.30545,0 -0.6514,0.18918 -0.6514,0.35624 0,0.0956 -0.15693,0.24052 -0.34874,0.32213 -0.49702,0.21147 -0.556112,0.52418 -0.0991,0.52418 0.2216,0 0.55562,-0.19204 0.81122,-0.46641 z m -0.017,-2.78874 c 0.35226,-0.30027 0.38512,-0.80346 0.0524,-0.80346 -0.26187,0 -0.87771,0.51857 -0.87771,0.73907 0,0.11692 0.21729,0.25736 0.4662,0.30129 0.0369,0.007 0.19855,-0.10008 0.35906,-0.2369 z M 99.290382,133.817 c 0,-0.0778 -0.10772,-0.14146 -0.239377,-0.14146 -0.246768,0 -0.317039,0.17737 -0.137317,0.34666 0.127494,0.1201 0.376694,-0.0157 0.376694,-0.2052 z m 0.737628,-0.85547 c 0.0491,-0.14468 0.15531,-0.39835 0.23602,-0.5637 0.17449,-0.35738 -0.0267,-1.61042 -0.25549,-1.59171 -0.08857,0.008 -0.162284,0.46455 -0.165654,1.02823 -0.0029,0.55834 -0.06143,1.09956 -0.129104,1.20271 -0.06953,0.10603 -0.0474,0.18753 0.05095,0.18753 0.09582,0 0.214184,-0.11838 0.263268,-0.26306 z m -6.887083,-1.12634 c 0.519092,-0.44876 0.777017,-1.16602 0.419271,-1.16602 -0.07954,0 -0.110465,-0.1231 -0.06866,-0.27356 0.08989,-0.32364 -0.291231,-0.66961 -0.604254,-0.54859 -0.120837,0.0467 -0.4172,0.32936 -0.65858,0.62808 -0.514062,0.63618 -0.590987,1.44853 -0.159587,1.68523 0.407285,0.22343 0.453462,0.20942 1.071847,-0.32514 z m -0.457789,-0.8256 c -0.210164,-0.19796 -0.07669,-0.49071 0.223773,-0.49071 0.175548,0 0.319179,0.0942 0.319179,0.2094 0,0.22674 -0.387652,0.42759 -0.542952,0.28131 z m 11.953412,-1.24231 c 0,-0.326 -0.6226,-0.28109 -0.69025,0.0498 -0.0438,0.21347 0.0276,0.26409 0.317,0.22548 0.20528,-0.0273 0.37325,-0.15126 0.37325,-0.27528 z m -9.33583,-0.238 c 0,-0.26545 -0.343555,-0.21921 -0.442188,0.0594 -0.03473,0.0982 0.05059,0.1785 0.189505,0.1785 0.138977,0 0.252683,-0.10711 0.252683,-0.238 z m -7.264097,-0.20854 c 0.05262,-0.0802 -0.104686,-0.18736 -0.349649,-0.23804 -0.244965,-0.0507 -0.541642,-0.12051 -0.659279,-0.1552 -0.345507,-0.10192 -0.541329,0.0905 -0.33288,0.32706 0.211515,0.24005 1.195871,0.2886 1.341808,0.0661 z m 5.428845,-0.83322 c 0,-0.19537 -0.124362,-0.31521 -0.359779,-0.3467 -0.425691,-0.0569 -0.681148,0.38356 -0.341718,0.58922 0.34626,0.2098 0.701497,0.087 0.701497,-0.24252 z m 9.335832,-0.0623 c 0,-0.18558 -0.43758,-0.31688 -0.71813,-0.21547 -0.29033,0.10494 -0.3158,0.45445 -0.04,0.54764 0.23687,0.0799 0.75804,-0.1484 0.75804,-0.33217 z m 3.66895,-1.58736 c 0.15963,-0.18117 0.14815,-0.24139 -0.0603,-0.31672 -0.35443,-0.12811 -0.73613,0.0328 -0.73613,0.31022 0,0.29465 0.53862,0.29904 0.79639,0.007 z m 6.52176,-0.21077 c 0.15095,-0.0901 0.16304,-0.16037 0.04,-0.23204 -0.20242,-0.11784 -0.49581,0.015 -0.49581,0.22442 0,0.17479 0.17104,0.17765 0.45591,0.008 z m -26.628156,-0.3923 c 0,-0.12401 -0.107722,-0.22549 -0.239388,-0.22549 -0.249199,0 -0.316606,0.17778 -0.132986,0.35075 0.183633,0.17297 0.372374,0.10947 0.372374,-0.12526 z m -6.318002,-2.42415 c 0.115594,-0.28375 -0.162331,-0.65739 -0.488996,-0.65739 -0.27171,0 -0.443131,0.36611 -0.316707,0.67644 0.122726,0.30122 0.68059,0.28803 0.805703,-0.0191 z m 44.565268,-6.15412 c 0.14523,-0.35647 -0.19514,-0.60789 -0.50018,-0.36945 -0.189,0.14777 -0.20496,0.24291 -0.0671,0.39949 0.23898,0.27123 0.44896,0.26011 0.56718,-0.0301 z m -53.472331,-1.11803 c 0.04764,-0.88778 -0.212247,-0.99619 -0.748983,-0.31236 -0.189259,0.24111 -0.481589,0.47225 -0.64963,0.51364 -0.521367,0.12842 -1.073459,-0.48415 -1.251028,-1.38808 -0.170113,-0.86598 -0.414062,-1.2723 -0.673297,-1.12139 -0.389317,0.22664 0.268987,2.40636 0.868214,2.87479 0.186415,0.14572 2.15447,0.33237 2.347041,0.22258 0.03707,-0.0211 0.08553,-0.37625 0.107683,-0.78918 z m 51.198881,0.51088 c 0.47813,-0.17282 0.28198,-0.51004 -0.2967,-0.51004 -0.59777,0 -0.89951,0.25607 -0.54852,0.46547 0.26132,0.15591 0.50204,0.1686 0.84522,0.0445 z m 6.12689,-3.12713 c 0.88623,-0.90559 1.11917,-2.14656 0.37769,-2.01205 -0.20105,0.0365 -0.25026,0.18962 -0.21378,0.66548 0.0427,0.55684 -0.0129,0.66516 -0.5618,1.09282 -0.70233,0.5473 -1.22191,0.56115 -1.30098,0.0346 -0.0392,-0.25995 0.10083,-0.47569 0.51866,-0.80012 0.60935,-0.47311 0.76833,-1.02652 0.29284,-1.0194 -0.15361,0.002 -0.558,0.20286 -0.89866,0.44569 -0.47617,0.33942 -0.68592,0.40796 -0.90712,0.29645 -0.41113,-0.20724 -0.62793,-0.17947 -0.62793,0.0804 0,0.12401 0.0668,0.22547 0.14819,0.22547 0.29518,0 0.64976,0.48162 0.64976,0.8826 0,0.58279 0.27541,0.77091 1.1287,0.77091 0.67707,0 0.80537,-0.061 1.39443,-0.66295 z m -13.33516,0.0274 c 0.75331,-0.33531 1.01296,-0.72175 0.47877,-0.71261 -0.15361,0.003 -0.41553,0.10192 -0.58208,0.22065 -0.16652,0.11875 -0.36252,0.18111 -0.43556,0.1386 -0.0731,-0.0425 -0.28251,-0.002 -0.46555,0.0905 -0.26628,0.13424 -0.29493,0.21071 -0.14335,0.38275 0.24518,0.27825 0.25592,0.27713 1.14777,-0.11984 z m 6.34067,-4.49711 c 0.41489,-0.28891 0.60523,-0.31401 1.83412,-0.24179 1.2837,0.0755 1.45885,0.0481 2.74439,-0.4272 1.6075,-0.59444 2.32586,-1.0699 2.77363,-1.83582 0.17845,-0.30524 0.68742,-0.99466 1.13106,-1.53205 0.44364,-0.53739 1.15873,-1.64838 1.58911,-2.46886 0.73034,-1.39233 0.78251,-1.56833 0.78251,-2.63944 0,-0.776373 -0.0758,-1.242033 -0.2343,-1.439418 -0.35507,-0.442181 -0.30428,-0.661248 0.46467,-2.004698 0.77496,-1.35395 0.96709,-1.823723 1.57421,-3.848888 0.7796,-2.600618 0.81039,-2.878924 0.75469,-6.817415 -0.0144,-1.021293 -0.0979,-2.034367 -0.18546,-2.251278 -0.0875,-0.216911 -0.26402,-0.863804 -0.39215,-1.437539 -0.12815,-0.573737 -0.37507,-1.259732 -0.54875,-1.524434 -0.17369,-0.264702 -0.31544,-0.676223 -0.31501,-0.914491 4.4e-4,-0.238267 -0.12391,-0.760891 -0.2763,-1.161386 -0.26275,-0.690462 -0.26279,-0.738031 -7.8e-4,-0.918485 0.39542,-0.27235 0.34082,-0.662296 -0.10753,-0.768296 -0.45462,-0.107475 -0.95622,-0.593642 -1.15299,-1.117537 -0.54881,-1.461188 -2.65101,-4.318527 -3.56998,-4.852353 -0.21942,-0.127471 -1.14959,-0.923385 -2.06704,-1.768701 -0.91746,-0.845315 -1.91982,-1.636011 -2.22748,-1.7571 -0.30769,-0.12109 -0.92152,-0.507022 -1.36408,-0.857628 -0.89776,-0.711214 -3.32336,-1.864815 -4.20411,-1.999441 -0.31497,-0.04814 -0.82004,-0.245652 -1.12237,-0.438906 -1.04328,-0.666874 -2.51582,-0.24615 -2.45301,0.70086 0.003,0.04133 0.0507,1.727306 0.10646,3.746596 0.0558,2.01929 0.13572,3.72359 0.17754,3.787334 0.061,0.093 0.19012,2.32374 0.24963,4.313431 0.0154,0.512926 -0.13819,0.569643 -0.55164,0.203786 -0.45944,-0.406557 -0.58754,-0.410476 -0.58754,-0.01797 0,0.20823 0.17523,0.377271 0.53983,0.520763 0.62349,0.245385 0.69504,0.444092 0.72972,2.026986 0.0647,2.956581 0.49225,6.844308 0.81377,7.400964 0.19062,0.330062 -0.44549,1.01074 -1.36281,1.458229 -0.70348,0.34318 -0.37876,0.430732 0.49446,0.133313 0.72421,-0.246671 0.97594,-0.0052 1.09633,1.05179 0.0534,0.469597 0.19715,1.327317 0.31927,1.906044 0.34822,1.65045 0.85766,4.408712 1.17993,6.388559 0.25191,1.547556 0.67987,3.831609 0.81678,4.359229 0.37502,1.44513 0.51599,2.25748 0.43956,2.53278 -0.0464,0.16711 0.006,0.42659 0.11549,0.57662 0.39517,0.53945 0.49364,1.42776 0.31652,2.85566 -0.0635,0.51116 -0.0721,1.0354 -0.0194,1.16498 0.14303,0.35112 1.14352,0.30001 1.69894,-0.0868 z m -58.821938,-4.57528 c 0.172155,-0.42256 0.103314,-0.77995 -0.169197,-0.87845 -0.393065,-0.14208 -0.578576,0.1228 -0.455545,0.65042 0.115595,0.49573 0.463895,0.62287 0.624742,0.22803 z m -2.804506,-0.7769 c 0.05852,-0.3877 -0.23313,-0.44554 -0.68322,-0.13554 -0.365832,0.25196 -0.182281,0.58308 0.288216,0.51993 0.215811,-0.0289 0.363007,-0.17222 0.395004,-0.38439 z m 74.236724,-0.6303 c 0,-0.078 -0.15669,-0.24517 -0.3482,-0.37151 -0.39302,-0.2593 -0.81282,-0.07 -0.66258,0.29882 0.0959,0.23535 1.01078,0.30115 1.01078,0.0727 z m -71.975281,-1.43477 c 0.159628,-0.18117 0.148169,-0.24139 -0.06023,-0.31672 -0.354425,-0.12811 -0.736113,0.0327 -0.736113,0.31022 0,0.29465 0.538606,0.29905 0.796369,0.007 z m 12.025139,-0.60281 c 0.61625,-0.24253 0.902972,-0.60678 0.902972,-1.14713 0,-0.310513 -0.04672,-0.291883 -0.54018,0.2156 -0.603571,0.62068 -0.702854,0.64971 -1.144879,0.3348 -0.376975,-0.26858 -1.027914,-0.29898 -1.027914,-0.0481 0,0.2104 0.790486,0.85653 1.057718,0.86456 0.09904,0.003 0.437524,-0.0959 0.752283,-0.21982 z m 80.053272,-3.107869 c 0.38406,-0.748762 0.30562,-0.907247 -0.20337,-0.410844 -0.20401,0.198974 -0.50458,0.433593 -0.6679,0.521389 -0.35289,0.189675 -0.19879,0.516817 0.24343,0.516817 0.20138,0 0.41609,-0.214573 0.62784,-0.627362 z m -1.35527,-0.720022 c 0.12142,-0.185046 -0.47876,-0.757082 -0.79433,-0.757082 -0.31539,0 -0.30415,0.284722 0.0249,0.627026 0.28892,0.300727 0.62081,0.356816 0.7696,0.130056 z M 40.91091,96.814614 c 0.589678,-0.262124 1.350199,-1.433275 1.137424,-1.751556 -0.240302,-0.359462 -0.646765,-0.383193 -1.361738,-0.07946 -0.832033,0.353403 -1.233263,1.360476 -0.730648,1.833897 0.241602,0.227581 0.437941,0.226997 0.954962,-0.0029 z M 40.721965,95.9456 c 0,-0.08267 0.07181,-0.150324 0.159589,-0.150324 0.08777,0 0.159577,0.06769 0.159577,0.150324 0,0.08267 -0.07181,0.150315 -0.159577,0.150315 -0.08777,0 -0.159589,-0.06769 -0.159589,-0.150315 z m 33.912282,-0.637565 c -0.252523,-0.330585 -0.256646,-0.323709 -0.157161,0.261764 0.154438,0.908861 0.292371,1.126041 0.358801,0.56499 0.03412,-0.288549 -0.04804,-0.625699 -0.20164,-0.826754 z m 2.786901,-0.03229 c 0.219307,-0.248897 0.09488,-0.5327 -0.233578,-0.5327 -0.28718,0 -0.450627,0.25765 -0.338323,0.533312 0.113361,0.27826 0.326388,0.278026 0.571901,-6.12e-4 z M 74.306455,94.40571 c -0.06256,-0.268203 -0.344397,-0.758615 -0.626348,-1.089808 -0.281948,-0.331189 -0.557396,-0.720537 -0.612097,-0.865219 -0.165195,-0.436861 -0.428667,-0.29575 -0.428667,0.229584 0,0.345487 0.131097,0.605666 0.438866,0.871018 0.24138,0.208106 0.561197,0.595209 0.710718,0.860231 0.361638,0.640969 0.667538,0.637546 0.517528,-0.0058 z m 70.882435,-0.663855 c -0.46221,-0.374498 -1.12436,-0.480971 -1.0185,-0.163785 0.0838,0.250988 1.09236,0.725157 1.29346,0.608086 0.0883,-0.05145 -0.0338,-0.249043 -0.27496,-0.444301 z m 2.6159,0.395068 c 0,-0.0853 -0.16157,-0.213552 -0.35907,-0.284931 -0.43816,-0.158358 -0.79473,0.08102 -0.43754,0.293733 0.31849,0.189656 0.79661,0.184375 0.79661,-0.0088 z M 48.031497,93.435118 c 0.05963,-0.379357 -0.35536,-0.555885 -0.614757,-0.261482 -0.148548,0.168597 -0.145826,0.267577 0.0123,0.447024 0.259866,0.29494 0.540504,0.208515 0.602477,-0.185542 z m 68.015503,0.09812 c 0,-0.184054 -0.97573,-0.601163 -1.15803,-0.495039 -0.21505,0.125192 0.038,0.342164 0.56743,0.486358 0.28095,0.07653 0.52875,0.145244 0.55069,0.152694 0.0219,0.0078 0.04,-0.05738 0.04,-0.144013 z m 37.58272,-0.153531 c 0,-0.11599 -0.12568,-0.233689 -0.27928,-0.261553 -0.27509,-0.04989 -0.38881,0.269064 -0.16955,0.475581 0.16726,0.15756 0.44883,0.02334 0.44883,-0.214028 z m -16.12239,-0.88398 c 0.29557,-0.538373 0.31025,-0.854084 0.0441,-0.94631 -0.38313,-0.132714 -0.60057,0.05178 -0.50108,0.42517 0.084,0.314704 0.0413,0.363357 -0.31945,0.363357 -0.24051,0 -0.41628,0.08463 -0.41628,0.200426 0,0.582929 0.86638,0.551957 1.19281,-0.04265 z M 48.005513,91.251664 c 0.05912,-0.09014 -0.0323,-0.109681 -0.232865,-0.04974 -0.24579,0.07348 -0.398479,6.91e-4 -0.596891,-0.284534 -0.278414,-0.400241 -0.868255,-0.526954 -0.868255,-0.186524 0,0.259015 0.339117,0.65378 0.63233,0.736088 0.3225,0.09053 0.947913,-0.03582 1.065681,-0.215294 z m -5.959506,-0.656768 c 0.333308,-0.420128 0.211506,-0.447944 -0.586417,-0.133914 -0.571505,0.224921 -0.76499,0.589477 -0.378558,0.713266 0.257803,0.08258 0.605382,-0.126098 0.964975,-0.579352 z m 2.78542,-0.424674 c 0.409338,-0.122373 0.476978,-0.463192 0.117698,-0.593054 -0.261084,-0.09437 -1.03542,0.181047 -1.03542,0.368275 0,0.06306 -0.17644,0.312165 -0.39209,0.553564 -0.294676,0.329866 -0.346653,0.481701 -0.20921,0.61116 0.137435,0.12946 0.304256,0.04742 0.671469,-0.330188 0.268723,-0.276343 0.650126,-0.550734 0.847553,-0.609757 z m 7.141413,0.816916 c 0,-0.267601 -0.526397,-0.393115 -0.753107,-0.179571 -0.08837,0.08322 -0.109857,0.228723 -0.04774,0.323329 0.158644,0.241773 0.80089,0.12649 0.80089,-0.143758 z m -3.351329,-0.755711 c 0,-0.273135 -0.09659,-0.386668 -0.359068,-0.421773 -0.370443,-0.04956 -0.455636,0.16222 -0.259195,0.644395 0.153585,0.377004 0.618263,0.209686 0.618263,-0.222622 z m 99.436469,-0.286203 c 0.45265,-0.449732 0.5422,-0.651447 0.54337,-1.223775 7.5e-4,-0.376906 -0.0988,-0.814341 -0.22126,-0.972077 -0.21805,-0.280865 -0.24617,-0.279525 -1.36134,0.06483 -1.21209,0.374295 -1.3797,0.534941 -1.53934,1.475427 -0.0897,0.527876 -0.051,0.634258 0.33319,0.918951 0.6876,0.509467 1.57194,0.405744 2.24538,-0.263359 z m -1.75787,-0.09827 c -0.37913,-0.357109 -0.27504,-1.116654 0.15302,-1.116654 0.11554,0 0.4359,-0.178997 0.71193,-0.397772 0.46046,-0.364946 0.52298,-0.377885 0.7577,-0.156796 0.21828,0.205594 0.22772,0.329414 0.0643,0.843291 -0.29634,0.931639 -1.13818,1.344806 -1.68692,0.827931 z m -33.2936,-1.108627 c 0.18171,-0.108279 0.14103,-0.158973 -0.19041,-0.237329 -0.43957,-0.103921 -0.75878,-0.0038 -0.75878,0.238173 0,0.180462 0.64591,0.179887 0.94919,-8.44e-4 z M 44.93394,88.191889 c 0.169593,-0.416287 0.104523,-0.814459 -0.133098,-0.814459 -0.319177,0 -0.39278,0.15944 -0.295305,0.63971 0.09325,0.459651 0.281125,0.536271 0.428403,0.174749 z m 8.554974,-0.392364 c 0,-0.217217 -0.09213,-0.2803 -0.357442,-0.244653 -0.404573,0.05437 -0.581084,0.549724 -0.262058,0.735439 0.272462,0.158612 0.6195,-0.116325 0.6195,-0.490786 z m -14.580119,-0.0463 c 0.05049,-0.124012 0.05099,-0.325804 9.79e-4,-0.448422 -0.119333,-0.292928 -0.581663,-0.122855 -0.581663,0.213973 0,0.468438 0.416753,0.636715 0.580638,0.234449 z m 18.702817,-1.073844 c -0.08187,-0.40434 -0.77137,-0.468226 -0.77137,-0.07147 0,0.338224 0.483673,0.669983 0.693207,0.475486 0.07406,-0.06874 0.109237,-0.250551 0.07812,-0.404015 z m 15.346909,0.171932 c 0.109266,-0.124013 0.291212,-0.225478 0.404319,-0.225478 0.271872,0 1.059475,-0.888692 0.943819,-1.06496 -0.153321,-0.233664 -0.346684,-0.159273 -1.262062,0.48553 -0.698802,0.492244 -0.846912,0.665892 -0.70517,0.826754 0.230803,0.261954 0.37347,0.25692 0.619094,-0.02185 z m 40.631699,-1.037479 c -0.24782,-0.558701 -0.57538,-0.726951 -0.57538,-0.295554 0,0.134924 0.16059,0.490052 0.35688,0.789174 0.4352,0.663256 0.5833,0.328733 0.2185,-0.49362 z m -15.257379,0.285011 c 0,-0.104248 0.143621,-0.224919 0.319173,-0.268158 0.37092,-0.09137 0.432822,-0.407402 0.07985,-0.407402 -0.131654,0 -0.239383,0.06636 -0.239383,0.147454 0,0.0811 -0.174337,0.18867 -0.387417,0.239045 -0.447074,0.105691 -0.674181,0.512239 -0.381373,0.682694 0.228884,0.133247 0.609201,-0.112492 0.609201,-0.393633 z M 39.190855,85.781773 c 0.110384,-0.270943 -0.34192,-0.458191 -0.575437,-0.238229 -0.233526,0.219961 -0.03473,0.645992 0.252918,0.542022 0.128191,-0.04633 0.273326,-0.183043 0.322519,-0.303793 z m 17.170622,-0.662345 c 0,-0.257609 -0.779435,-0.52528 -0.979858,-0.336499 -0.09529,0.08977 -0.125022,0.236746 -0.06603,0.326624 0.13587,0.207082 1.045903,0.215674 1.045903,0.0099 z m 46.192373,-2.236905 c 0.21273,-0.387455 0.21277,-0.445975 4.8e-4,-0.522707 -0.31221,-0.11285 -0.88986,0.435109 -0.76967,0.73012 0.14824,0.363887 0.50895,0.266624 0.76919,-0.207413 z M 57.917503,82.755207 c 0.08726,-0.246843 -0.412771,-0.423049 -0.627242,-0.221035 -0.09183,0.08645 -0.116164,0.234464 -0.05414,0.32892 0.141,0.214898 0.592594,0.1434 0.681424,-0.107885 z m 41.400023,-0.379694 c 0.06055,-0.09233 0.03441,-0.301201 -0.05811,-0.464147 -0.13236,-0.232953 -0.08006,-0.459541 0.245298,-1.06033 0.617816,-1.141225 1.088066,-2.737538 1.155026,-3.92076 0.0586,-1.035999 0.90701,-3.87022 1.36549,-4.561723 0.25789,-0.388978 0.41775,-0.403665 0.80457,-0.07392 0.16111,0.137342 0.44888,0.323362 0.63947,0.413378 0.19428,0.09175 0.48063,0.493926 0.65168,0.915256 0.16783,0.413377 0.39754,0.920703 0.51049,1.127391 0.12529,0.229297 0.15516,0.492997 0.0766,0.676435 -0.31263,0.729928 -0.17901,1.059782 0.62913,1.553031 1.25453,0.765699 1.65377,0.59948 0.87375,-0.363782 -0.39213,-0.484239 -0.40292,-0.537725 -0.15958,-0.79098 0.37398,-0.389262 0.32376,-0.574335 -0.1817,-0.669555 -0.33516,-0.06314 -0.49524,-0.222821 -0.65932,-0.657645 -0.80181,-2.125065 -0.79257,-2.11042 -1.54364,-2.44296 -0.88051,-0.389854 -0.992,-0.628162 -0.60805,-1.299698 0.2892,-0.505862 0.32476,-0.520616 1.19499,-0.49602 0.49332,0.01394 0.96916,-0.01671 1.0575,-0.06813 0.19686,-0.114593 0.6043,0.302223 0.75741,0.774799 0.0798,0.245999 0.0329,0.404482 -0.15809,0.536051 -0.14915,0.102737 -0.24454,0.317611 -0.21196,0.477497 0.0672,0.329513 1.46646,1.108578 2.00078,1.113944 0.63706,0.0064 0.54583,-0.276129 -0.12983,-0.401984 -0.61331,-0.114247 -0.68078,-0.175572 -0.87853,-0.79862 -0.11779,-0.371178 -0.21526,-0.92454 -0.2166,-1.229694 -0.003,-0.666888 -0.11933,-0.747313 -1.17807,-0.813735 -1.15518,-0.07247 -1.53732,-0.181709 -1.53732,-0.439434 0,-0.123157 0.3875,-0.856131 0.86109,-1.628833 0.47361,-0.772703 1.06383,-1.893763 1.31158,-2.491244 0.52777,-1.272747 0.87625,-1.539524 1.39021,-1.064233 1.06381,0.983806 2.41478,1.787706 2.64298,1.572743 0.12714,-0.119737 -0.45385,-0.518031 -0.75562,-0.518031 -0.12864,0 -0.68583,-0.456593 -1.2382,-1.014651 l -1.00432,-1.014652 0.0937,-0.826753 c 0.0514,-0.454714 0.15222,-0.934665 0.2238,-1.066555 0.0716,-0.131893 0.17245,-0.436289 0.22415,-0.676435 0.28436,-1.320725 0.28498,-1.407013 0.0106,-1.506159 -0.14879,-0.05378 -0.35189,-0.02115 -0.45131,0.0725 -0.33271,0.313387 -0.90839,0.175017 -1.55259,-0.373178 -0.60997,-0.519073 -0.67623,-0.539129 -1.47665,-0.447007 -0.67267,0.07743 -0.95597,0.03636 -1.43587,-0.208139 -0.37057,-0.188773 -0.89762,-0.304595 -1.38605,-0.304595 -0.43347,0 -0.9903,-0.07251 -1.237385,-0.161139 -1.839239,-0.659695 -4.818163,-0.590866 -7.231707,0.167092 -0.83384,0.261864 -1.91105,0.563957 -2.393808,0.671322 -2.380734,0.529477 -3.251496,0.815647 -3.575287,1.174982 -0.19325,0.214479 -0.730647,0.484359 -1.272207,0.638908 -0.829148,0.236621 -1.535976,0.683864 -1.535976,0.971888 0,0.05464 -0.424706,0.258245 -0.943777,0.452447 -0.902161,0.337527 -0.946398,0.378865 -1.002936,0.937329 -0.06206,0.613033 0.212683,1.159921 0.58274,1.159921 0.260028,0 1.137019,0.916125 1.278262,1.335303 0.05617,0.166554 0.237337,0.343274 0.402705,0.392711 0.179457,0.05365 0.401536,0.374894 0.550876,0.796863 0.137616,0.388837 0.455239,0.997942 0.705842,1.353568 0.514307,0.729855 2.01219,2.041606 2.496106,2.185938 0.32071,0.09566 0.497201,0.270963 2.038316,2.024705 1.277206,1.453424 2.828732,3.658701 2.828732,4.020656 0,0.10964 0.132235,0.287737 0.293844,0.395769 0.16162,0.108032 0.387569,0.365531 0.502109,0.572219 0.114538,0.206688 0.47532,0.680192 0.801752,1.052231 0.326428,0.372039 0.641908,0.822627 0.701058,1.001306 0.05912,0.178679 0.351232,0.49994 0.64906,0.713914 0.297836,0.213973 0.588814,0.529418 0.646632,0.700988 0.06003,0.178291 0.406574,0.433668 0.808709,0.596035 0.574138,0.231811 0.703618,0.356039 0.703618,0.675107 0,0.677908 0.286764,1.012784 0.769557,0.898651 0.233283,-0.05515 0.47372,-0.17582 0.534304,-0.268154 z m -40.482453,-1.31353 c 0,-0.122882 -0.161579,-0.245035 -0.359065,-0.271454 -0.349306,-0.04673 -0.498462,0.242425 -0.247159,0.479134 0.185918,0.175126 0.606224,0.03113 0.606224,-0.20768 z m 15.958701,-0.146201 c 0,-0.267601 -0.526396,-0.393116 -0.753107,-0.179572 -0.08837,0.08322 -0.109865,0.228724 -0.04774,0.32333 0.158633,0.241772 0.800887,0.12649 0.800887,-0.143758 z m 1.645831,-1.467667 c -0.06491,-0.320688 -0.76811,-0.456411 -0.76811,-0.148247 0,0.287527 0.155607,0.411305 0.51706,0.411305 0.203674,0 0.286683,-0.08698 0.25105,-0.263058 z m 2.334933,-5.585809 c 0.137719,-0.209892 -0.07791,-0.61484 -0.327344,-0.61484 -0.12227,0 -0.222302,0.124013 -0.222302,0.275585 0,0.428018 0.349761,0.643899 0.549646,0.339255 z m 6.472177,-1.760636 c 0,-0.242501 -0.412851,-0.278822 -0.563278,-0.04956 -0.05689,0.08663 -0.06023,0.263361 -0.0082,0.392727 0.07751,0.190102 0.141367,0.199606 0.333318,0.04955 0.130619,-0.102109 0.237487,-0.278836 0.237487,-0.392726 z m -4.308849,-0.207073 c 0.281887,-0.248026 0.639756,-0.450956 0.79527,-0.450956 0.155517,0 0.371754,-0.101001 0.480514,-0.224448 0.141376,-0.160452 0.368329,-0.198756 0.795981,-0.134344 0.5189,0.07816 0.669834,0.02716 1.138369,-0.384671 l 0.540161,-0.474774 -0.877731,0.10031 c -0.482749,0.05516 -0.998682,0.160165 -1.146507,0.233322 -0.147837,0.07316 -0.406006,0.133011 -0.573721,0.133011 -0.167715,0 -0.430182,0.130359 -0.583258,0.289687 -0.408605,0.425283 -1.403131,0.545038 -1.913012,0.230355 -0.226333,-0.139689 -0.411519,-0.385934 -0.411519,-0.547212 0,-0.41499 -0.290431,-0.874742 -0.552593,-0.874742 -0.400389,0 -0.883694,-0.757014 -0.883694,-1.384162 0,-0.484047 -0.05099,-0.582246 -0.279277,-0.538409 -0.211282,0.04057 -0.274586,0.192349 -0.260029,0.623421 0.02469,0.729953 0.333967,1.271504 0.759089,1.329066 0.232602,0.03149 0.487452,0.340203 0.838644,1.015889 0.497558,0.957268 1.015646,1.509614 1.415971,1.509614 0.112661,0 0.435464,-0.202931 0.717342,-0.450957 z M 67.325343,69.398626 c 0.02916,-0.0823 -0.18164,-0.161197 -0.468363,-0.175325 -0.286724,-0.01413 -0.698611,-0.04457 -0.915305,-0.06764 -0.264814,-0.02821 -0.411846,0.04095 -0.448475,0.210902 -0.04085,0.189387 0.07811,0.265235 0.473778,0.302169 0.643909,0.0601 1.286742,-0.06772 1.358365,-0.270102 z m 9.114171,-0.35069 c 0.03992,-0.112739 -0.01992,-0.169109 -0.13964,-0.131529 -0.115208,0.03617 -0.240882,0.154546 -0.279277,0.263058 -0.03992,0.112739 0.01992,0.169108 0.139638,0.131529 0.1152,-0.03617 0.240872,-0.154547 0.279279,-0.263058 z m 37.852016,0.149516 c 0,-0.213447 -0.65202,-1.211143 -0.79152,-1.211143 -0.067,0 -0.28542,-0.287484 -0.48558,-0.638854 -0.43786,-0.76858 -1.07566,-1.285011 -1.74207,-1.410553 -0.69521,-0.130962 -0.61045,0.108892 0.23734,0.671759 0.47358,0.314433 0.83715,0.714239 1.03756,1.140964 0.41106,0.875281 1.74427,1.981918 1.74427,1.447827 z M 67.213395,67.756114 c 0,-0.126608 -0.112547,-0.270876 -0.250113,-0.320597 -0.300142,-0.108486 -0.627435,0.157526 -0.476624,0.387376 0.162566,0.247772 0.726737,0.19593 0.726737,-0.06678 z m 42.875285,-0.0053 c 0.0526,-0.12957 0.0141,-0.31269 -0.0858,-0.406933 -0.22462,-0.211565 -0.75673,0.220743 -0.58808,0.477772 0.15929,0.242759 0.56357,0.200268 0.67402,-0.07083 z m 16.30166,-1.682219 c 0.0585,-0.570422 -0.0128,-0.597496 -0.46129,-0.175044 -0.37379,0.35208 -0.29326,0.788074 0.13154,0.71227 0.18445,-0.03291 0.29679,-0.21593 0.32975,-0.537226 z m -57.483637,0.02609 c 0.129949,-0.487691 -0.331782,-1.046857 -0.507755,-0.614904 -0.128161,0.314585 0.04399,1.003423 0.250724,1.003423 0.08441,0 0.200098,-0.174833 0.257031,-0.388519 z m 7.156942,-0.05204 c 0.118024,-0.179907 -0.18218,-0.358128 -0.39475,-0.234385 -0.178471,0.103898 -0.06136,0.374281 0.162188,0.374281 0.0774,0 0.182069,-0.06298 0.232562,-0.139931 z m 49.849535,-1.008927 c -0.0753,-0.36066 -0.55716,-0.614688 -0.77559,-0.408931 -0.12594,0.118614 -0.10191,0.232295 0.0867,0.409998 0.33892,0.319254 0.7556,0.31861 0.6888,-0.0011 z M 78.863235,64.831643 c 0,-0.203046 -1.127449,-0.63172 -1.401222,-0.532766 -0.351144,0.12692 -0.132122,0.446696 0.377078,0.550543 0.727151,0.148296 1.024144,0.143142 1.024144,-0.01778 z m 33.704015,-3.86327 c 0.49696,-0.448458 0.56387,-0.648311 0.21711,-0.648311 -0.35478,0 -1.11364,0.677553 -0.98257,0.877292 0.16549,0.252225 0.2653,0.222368 0.76546,-0.228981 z M 77.239131,58.919098 c 0.08482,-0.414803 -0.09101,-0.708672 -0.364694,-0.609731 -0.144514,0.05224 -0.245421,0.272041 -0.245421,0.534603 0,0.342628 0.06431,0.43424 0.277449,0.395568 0.15259,-0.02768 0.302296,-0.171878 0.332666,-0.32044 z m 38.931929,-0.0356 c 0.19508,-0.128701 0.3547,-0.331632 0.3547,-0.450956 0,-0.340059 -0.74712,-0.260945 -1.02162,0.10818 -0.41531,0.558502 0.009,0.776696 0.66692,0.342776 z m -3.02544,-3.949118 c 0.033,-0.21217 -0.0333,-0.326443 -0.19006,-0.326443 -0.31033,0 -0.47353,0.251803 -0.35375,0.545815 0.12996,0.31899 0.48189,0.177022 0.54381,-0.219372 z m -29.774056,0.175278 c -0.109715,-0.0417 -0.289243,-0.0417 -0.398968,0 -0.109713,0.04171 -0.01992,0.07581 0.199488,0.07581 0.219428,0 0.309203,-0.03412 0.19948,-0.07581 z m 12.126614,-4.999739 c -0.03189,-0.366735 0.07303,-0.590048 0.438866,-0.934699 0.485713,-0.457517 0.62004,-0.932163 0.314169,-1.110218 -0.256931,-0.149574 -0.631355,0.224592 -0.631355,0.630927 0,0.200513 -0.179529,0.521294 -0.398967,0.712845 -0.440847,0.384842 -0.481458,0.564165 -0.22857,1.009253 0.248906,0.438085 0.554552,0.251926 0.505857,-0.308108 z m -4.535043,-0.248907 c 0.293875,-0.08638 0.166354,-0.726259 -0.156266,-0.784144 -0.293539,-0.05267 -0.932137,0.514065 -0.932137,0.827235 0,0.187483 0.351387,0.173571 1.088403,-0.0431 z m -1.147888,-3.618467 c 0.138868,-0.521152 0.676214,-1.346455 1.176594,-1.807102 2.202933,-2.028016 2.415524,-2.303963 1.774996,-2.303963 -0.364571,0 -0.640679,0.293151 -0.798012,0.847268 -0.08035,0.282937 -0.342724,0.527474 -0.822282,0.766343 -1.00971,0.50294 -1.369122,0.871846 -1.597316,1.639539 -0.177202,0.596152 -0.244416,0.666178 -0.566346,0.590071 -0.401933,-0.09502 -0.622,0.108802 -0.483784,0.448061 0.05444,0.133499 0.306643,0.218281 0.649446,0.218281 0.473312,0 0.577043,-0.062 0.666704,-0.398498 z m 9.090385,-2.908514 c 0.192153,0 0.518907,-0.133036 0.726131,-0.295637 l 0.376747,-0.295637 -0.922642,-0.005 c -0.965507,-0.0053 -1.218637,0.170336 -1.004248,0.69657 0.07781,0.191011 0.146404,0.208886 0.288369,0.07516 0.10245,-0.09652 0.343499,-0.175477 0.535643,-0.175477 z m 1.023087,-3.3733 c 0,-0.119135 -0.07808,-0.262056 -0.173494,-0.317604 -0.225348,-0.13118 -0.532921,0.15854 -0.393657,0.370794 0.156429,0.238409 0.567151,0.199889 0.567151,-0.05319 z m -10.66839,-0.760463 c 0,-0.07854 -0.0772,-0.167042 -0.171564,-0.196667 -0.09437,-0.02962 -0.171555,0.05888 -0.171555,0.196667 0,0.137793 0.0772,0.226293 0.171555,0.196668 0.09437,-0.02963 0.171564,-0.118127 0.171564,-0.196668 z m -0.742084,-0.357869 c 1.141468,-0.493722 1.596067,-1.381025 0.764888,-1.492943 -0.291963,-0.03931 -0.34382,0.02027 -0.317541,0.364793 0.02794,0.366119 -0.04308,0.429668 -0.640517,0.573103 -0.75005,0.180079 -1.093758,0.428623 -0.932533,0.674341 0.148414,0.226195 0.384887,0.201136 1.125703,-0.119294 z M 191.14587,155.34169 c -0.0688,-0.10478 -0.0818,-0.2311 -0.0292,-0.28071 0.14283,-0.13452 0.29855,0.0633 0.22141,0.28131 -0.0541,0.15276 -0.0915,0.15263 -0.1922,-6e-4 z m -80.33006,-7.39454 c -0.23995,-0.72413 -0.18646,-0.83798 0.45613,-0.97092 1.01952,-0.21093 1.5066,0.83821 0.61186,1.31788 -0.70665,0.37884 -0.84209,0.33484 -1.06799,-0.34696 z m 52.94768,-0.22561 c 0,-0.12889 0.0731,-0.19186 0.16218,-0.13993 0.0891,0.0519 0.12087,0.15739 0.0703,0.23435 -0.1368,0.2085 -0.23256,0.16962 -0.23256,-0.0944 z m -136.766007,-3.3733 c 0,-0.0827 0.07182,-0.15032 0.15959,-0.15032 0.08777,0 0.159588,0.0676 0.159588,0.15032 0,0.0827 -0.07182,0.15032 -0.159588,0.15032 -0.08777,0 -0.15959,-0.0676 -0.15959,-0.15032 z m 158.407097,-0.68873 c -0.13686,-0.33597 -0.12608,-0.3635 0.14252,-0.3635 0.13298,0 0.23938,0.13362 0.23938,0.30064 0,0.35839 -0.24506,0.39874 -0.3819,0.0628 z M 29.072115,124.50617 c 0,-0.0827 0.07182,-0.15032 0.159587,-0.15032 0.08777,0 0.159589,0.0676 0.159589,0.15032 0,0.0827 -0.07182,0.15032 -0.159589,0.15032 -0.08776,0 -0.159587,-0.0676 -0.159587,-0.15032 z m 142.511135,-2.93122 c 0,-0.12401 0.0718,-0.22548 0.15958,-0.22548 0.0877,0 0.15959,0.10147 0.15959,0.22548 0,0.12402 -0.0718,0.22548 -0.15959,0.22548 -0.0877,0 -0.15958,-0.10146 -0.15958,-0.22548 z M 67.697767,108.1313 c -0.277031,-0.48756 -0.199082,-0.76147 0.216686,-0.76147 0.450537,0 0.64137,0.35503 0.409855,0.76248 -0.209311,0.36839 -0.416843,0.36806 -0.626541,-9.4e-4 z m 83.675153,-1.58944 c -0.0507,-0.12469 0.0173,-0.44599 0.1515,-0.71402 0.40127,-0.80185 0.51102,-2.7773 0.20872,-3.75675 -0.14182,-0.4595 -0.25784,-0.91849 -0.25784,-1.02 0,-0.29821 1.22134,-0.0703 1.88679,0.35216 0.32275,0.20486 0.83815,0.4472 1.14536,0.53854 0.42257,0.12562 0.66644,0.34712 1.00171,0.90983 0.35842,0.60157 1.07291,2.71334 1.07291,3.17114 0,0.0595 -0.21082,0.1903 -0.46846,0.29083 -0.39553,0.15431 -0.54302,0.14131 -0.94707,-0.0836 -0.41294,-0.22975 -0.51539,-0.2375 -0.74696,-0.0565 -0.72221,0.56457 -2.86135,0.82313 -3.04666,0.36826 z m -54.706641,-3.82244 c -0.15386,-0.16013 -0.235528,-0.35856 -0.181489,-0.44092 0.05404,-0.0824 -0.371021,-0.6447 -0.944598,-1.24961 -0.57358,-0.60492 -1.254364,-1.449383 -1.512847,-1.876623 -0.258484,-0.42722 -0.544517,-0.820158 -0.635633,-0.873193 -0.37999,-0.221207 -0.139557,-0.912295 0.663566,-1.907361 0.766636,-0.949846 0.874623,-1.027391 1.430874,-1.027391 0.677409,0 1.72958,0.415084 1.72958,0.682324 0,0.09668 0.179528,0.358159 0.398966,0.581184 0.219429,0.223016 0.398967,0.504392 0.398967,0.625266 0,0.120874 0.06703,0.337228 0.149004,0.480793 0.08198,0.143555 0.22985,0.59445 0.328664,1.001967 0.09884,0.407531 0.319041,0.925291 0.489355,1.150601 0.17033,0.225303 0.308418,0.466833 0.306876,0.536753 -0.0021,0.0699 -0.356954,0.48568 -0.78981,0.92391 -0.471127,0.47698 -0.751411,0.88426 -0.698275,1.01466 0.05526,0.13562 -0.01014,0.21785 -0.172713,0.21785 -0.143814,0 -0.302792,0.10147 -0.353327,0.22548 -0.122331,0.3003 -0.270979,0.28421 -0.60716,-0.0657 z m 10.763011,-4.669354 c 0,-0.08267 0.10772,-0.150314 0.23938,-0.150314 0.13166,0 0.23939,0.06769 0.23939,0.150314 0,0.08267 -0.10773,0.150315 -0.23939,0.150315 -0.13166,0 -0.23938,-0.06759 -0.23938,-0.150315 z m 48.76063,-12.315757 c -0.0505,-0.07696 -0.0189,-0.182418 0.0704,-0.234348 0.0891,-0.05193 0.16219,0.01104 0.16219,0.139932 0,0.264038 -0.0958,0.302916 -0.23257,0.09442 z m -0.88453,-7.018614 c 0,-0.193861 0.0466,-0.207476 0.22704,-0.06638 0.18374,0.143639 0.24049,0.111307 0.29744,-0.169492 0.0626,-0.308328 0.0729,-0.300931 0.0922,0.06638 0.0169,0.319988 -0.0504,0.413377 -0.29744,0.413377 -0.18803,0 -0.31916,-0.100213 -0.31916,-0.243884 z m -4.30885,-2.311535 c 0,-0.08267 0.0718,-0.15032 0.15958,-0.15032 0.0878,0 0.15959,0.06764 0.15959,0.15032 0,0.08267 -0.0718,0.150318 -0.15959,0.150318 -0.0877,0 -0.15958,-0.06764 -0.15958,-0.150318 z m 0.0813,-0.603727 c 0.0551,-0.08402 0.16708,-0.113854 0.24879,-0.06629 0.22136,0.12886 0.18008,0.219059 -0.10022,0.219059 -0.13684,0 -0.2037,-0.06874 -0.14856,-0.152771 z m 0.87611,-0.815429 c 0,-0.128893 0.0718,-0.23435 0.15958,-0.23435 0.0878,0 0.15959,0.06365 0.15959,0.141447 0,0.0778 -0.0718,0.183253 -0.15959,0.234349 -0.0877,0.0511 -0.15958,-0.01256 -0.15958,-0.141446 z m 1.21014,-8.481707 c -0.0688,-0.104772 -0.0818,-0.23109 -0.0292,-0.280707 0.14283,-0.134529 0.29855,0.06334 0.22141,0.281313 -0.0541,0.15275 -0.0916,0.152633 -0.19219,-6.06e-4 z M 13.432601,45.955742 c 0,-0.128893 0.07182,-0.192545 0.15959,-0.141449 0.08776,0.0511 0.159578,0.156553 0.159578,0.23435 0,0.0778 -0.07181,0.141447 -0.159578,0.141447 -0.08777,0 -0.15959,-0.105457 -0.15959,-0.234348 z M 125.47522,43.697304 c 0.008,-0.175113 0.0456,-0.210731 0.0965,-0.09082 0.0461,0.108511 0.0406,0.238161 -0.0126,0.288111 -0.0529,0.04995 -0.0906,-0.03883 -0.0838,-0.197293 z m 46.39727,-5.276155 c 0.11521,-0.04343 0.25285,-0.03808 0.30586,0.01187 0.053,0.04995 -0.0412,0.08547 -0.20943,0.07896 -0.18593,-0.0072 -0.22374,-0.04283 -0.0965,-0.09082 z M 7.5278774,20.184947 c 0,-0.08267 0.1795377,-0.150319 0.3989757,-0.150319 0.2194279,0 0.3989658,0.06764 0.3989658,0.150319 0,0.08268 -0.1795379,0.150318 -0.3989658,0.150318 -0.219438,0 -0.3989757,-0.06764 -0.3989757,-0.150318 z M 75.777887,17.679634 c -0.15716,-0.148039 -0.129256,-0.651381 0.03615,-0.651381 0.142544,0 0.336253,0.353472 0.336253,0.613569 0,0.160757 -0.218312,0.182924 -0.372374,0.03781 z m -0.638344,-0.450956 c -0.183632,-0.172962 -0.116215,-0.350744 0.132987,-0.350744 0.131664,0 0.239376,0.101465 0.239376,0.225478 0,0.234734 -0.18874,0.298228 -0.372363,0.125266 z m 9.162246,-3.144167 c 0.0082,-0.175114 0.0455,-0.210732 0.09639,-0.09082 0.04612,0.108512 0.04043,0.238162 -0.0126,0.288111 -0.05302,0.04995 -0.09071,-0.03883 -0.0838,-0.197293 z M 125.70361,7.7060372 c 0.0552,-0.084022 0.16708,-0.113854 0.2488,-0.066292 0.22136,0.1288601 0.18009,0.2190595 -0.10022,0.2190595 -0.13684,0 -0.20369,-0.068743 -0.14856,-0.1527713 z"
     id="path9" />
</svg>
